<svg xmlns="http://www.w3.org/2000/svg" width="860" height="930" viewBox="0 0 860 930">
  <rect width="860" height="930" fill="#0d1117"/>
  <defs>
  <style>
    .lbl { font: 10px sans-serif; fill: #8b949e; }
    .sec-title { font: bold 10px sans-serif; fill: #e6edf3; opacity: 0.65; letter-spacing: 0.7px; }
    .card-bg { fill: #161b22; stroke: #30363d; stroke-width: 1; rx: 12; }
  </style>
<style>
    @keyframes popIn0 {
      0%   { opacity:0; transform: scale(0.4) translateY(30px); }
      60%  { opacity:1; transform: scale(1.05) translateY(-2px); }
      80%  { transform: scale(0.98) translateY(1px); }
      100% { opacity:1; transform: scale(1) translateY(0); }
    }
    @keyframes bob0 {
      0%,100% { transform: translateY(0px); }
      25%  { transform: translateY(-2px) rotate(-1deg); }
      50%  { transform: translateY(-3px); }
      75%  { transform: translateY(-1.5px) rotate(1deg); }
    }
    .cw0 {
      opacity:0;
      animation: popIn0 0.5s cubic-bezier(0.34,1.56,0.64,1) 0.10s forwards;
    }
    .icon0 {
      animation: bob0 2.6s ease-in-out 0.56s infinite;
      transform-box: fill-box;
      transform-origin: center;
    }
    @keyframes popIn1 {
      0%   { opacity:0; transform: scale(0.4) translateY(30px); }
      60%  { opacity:1; transform: scale(1.05) translateY(-2px); }
      80%  { transform: scale(0.98) translateY(1px); }
      100% { opacity:1; transform: scale(1) translateY(0); }
    }
    @keyframes bob1 {
      0%,100% { transform: translateY(0px); }
      25%  { transform: translateY(-2px) rotate(-1deg); }
      50%  { transform: translateY(-3px); }
      75%  { transform: translateY(-1.5px) rotate(1deg); }
    }
    .cw1 {
      opacity:0;
      animation: popIn1 0.5s cubic-bezier(0.34,1.56,0.64,1) 0.17s forwards;
    }
    .icon1 {
      animation: bob1 2.6s ease-in-out 1.35s infinite;
      transform-box: fill-box;
      transform-origin: center;
    }
    @keyframes popIn2 {
      0%   { opacity:0; transform: scale(0.4) translateY(30px); }
      60%  { opacity:1; transform: scale(1.05) translateY(-2px); }
      80%  { transform: scale(0.98) translateY(1px); }
      100% { opacity:1; transform: scale(1) translateY(0); }
    }
    @keyframes bob2 {
      0%,100% { transform: translateY(0px); }
      25%  { transform: translateY(-2px) rotate(-1deg); }
      50%  { transform: translateY(-3px); }
      75%  { transform: translateY(-1.5px) rotate(1deg); }
    }
    .cw2 {
      opacity:0;
      animation: popIn2 0.5s cubic-bezier(0.34,1.56,0.64,1) 0.24s forwards;
    }
    .icon2 {
      animation: bob2 2.6s ease-in-out 1.07s infinite;
      transform-box: fill-box;
      transform-origin: center;
    }
    @keyframes popIn3 {
      0%   { opacity:0; transform: scale(0.4) translateY(30px); }
      60%  { opacity:1; transform: scale(1.05) translateY(-2px); }
      80%  { transform: scale(0.98) translateY(1px); }
      100% { opacity:1; transform: scale(1) translateY(0); }
    }
    @keyframes bob3 {
      0%,100% { transform: translateY(0px); }
      25%  { transform: translateY(-2px) rotate(-1deg); }
      50%  { transform: translateY(-3px); }
      75%  { transform: translateY(-1.5px) rotate(1deg); }
    }
    .cw3 {
      opacity:0;
      animation: popIn3 0.5s cubic-bezier(0.34,1.56,0.64,1) 0.31s forwards;
    }
    .icon3 {
      animation: bob3 2.6s ease-in-out 0.46s infinite;
      transform-box: fill-box;
      transform-origin: center;
    }
    @keyframes popIn4 {
      0%   { opacity:0; transform: scale(0.4) translateY(30px); }
      60%  { opacity:1; transform: scale(1.05) translateY(-2px); }
      80%  { transform: scale(0.98) translateY(1px); }
      100% { opacity:1; transform: scale(1) translateY(0); }
    }
    @keyframes bob4 {
      0%,100% { transform: translateY(0px); }
      25%  { transform: translateY(-2px) rotate(-1deg); }
      50%  { transform: translateY(-3px); }
      75%  { transform: translateY(-1.5px) rotate(1deg); }
    }
    .cw4 {
      opacity:0;
      animation: popIn4 0.5s cubic-bezier(0.34,1.56,0.64,1) 0.38s forwards;
    }
    .icon4 {
      animation: bob4 2.6s ease-in-out 1.26s infinite;
      transform-box: fill-box;
      transform-origin: center;
    }
    @keyframes popIn5 {
      0%   { opacity:0; transform: scale(0.4) translateY(30px); }
      60%  { opacity:1; transform: scale(1.05) translateY(-2px); }
      80%  { transform: scale(0.98) translateY(1px); }
      100% { opacity:1; transform: scale(1) translateY(0); }
    }
    @keyframes bob5 {
      0%,100% { transform: translateY(0px); }
      25%  { transform: translateY(-2px) rotate(-1deg); }
      50%  { transform: translateY(-3px); }
      75%  { transform: translateY(-1.5px) rotate(1deg); }
    }
    .cw5 {
      opacity:0;
      animation: popIn5 0.5s cubic-bezier(0.34,1.56,0.64,1) 0.45s forwards;
    }
    .icon5 {
      animation: bob5 2.6s ease-in-out 1.33s infinite;
      transform-box: fill-box;
      transform-origin: center;
    }
    @keyframes popIn6 {
      0%   { opacity:0; transform: scale(0.4) translateY(30px); }
      60%  { opacity:1; transform: scale(1.05) translateY(-2px); }
      80%  { transform: scale(0.98) translateY(1px); }
      100% { opacity:1; transform: scale(1) translateY(0); }
    }
    @keyframes bob6 {
      0%,100% { transform: translateY(0px); }
      25%  { transform: translateY(-2px) rotate(-1deg); }
      50%  { transform: translateY(-3px); }
      75%  { transform: translateY(-1.5px) rotate(1deg); }
    }
    .cw6 {
      opacity:0;
      animation: popIn6 0.5s cubic-bezier(0.34,1.56,0.64,1) 0.52s forwards;
    }
    .icon6 {
      animation: bob6 2.6s ease-in-out 0.56s infinite;
      transform-box: fill-box;
      transform-origin: center;
    }
    @keyframes popIn7 {
      0%   { opacity:0; transform: scale(0.4) translateY(30px); }
      60%  { opacity:1; transform: scale(1.05) translateY(-2px); }
      80%  { transform: scale(0.98) translateY(1px); }
      100% { opacity:1; transform: scale(1) translateY(0); }
    }
    @keyframes bob7 {
      0%,100% { transform: translateY(0px); }
      25%  { transform: translateY(-2px) rotate(-1deg); }
      50%  { transform: translateY(-3px); }
      75%  { transform: translateY(-1.5px) rotate(1deg); }
    }
    .cw7 {
      opacity:0;
      animation: popIn7 0.5s cubic-bezier(0.34,1.56,0.64,1) 0.59s forwards;
    }
    .icon7 {
      animation: bob7 2.6s ease-in-out 0.71s infinite;
      transform-box: fill-box;
      transform-origin: center;
    }
    @keyframes popIn8 {
      0%   { opacity:0; transform: scale(0.4) translateY(30px); }
      60%  { opacity:1; transform: scale(1.05) translateY(-2px); }
      80%  { transform: scale(0.98) translateY(1px); }
      100% { opacity:1; transform: scale(1) translateY(0); }
    }
    @keyframes bob8 {
      0%,100% { transform: translateY(0px); }
      25%  { transform: translateY(-2px) rotate(-1deg); }
      50%  { transform: translateY(-3px); }
      75%  { transform: translateY(-1.5px) rotate(1deg); }
    }
    .cw8 {
      opacity:0;
      animation: popIn8 0.5s cubic-bezier(0.34,1.56,0.64,1) 0.66s forwards;
    }
    .icon8 {
      animation: bob8 2.6s ease-in-out 1.42s infinite;
      transform-box: fill-box;
      transform-origin: center;
    }
    @keyframes popIn9 {
      0%   { opacity:0; transform: scale(0.4) translateY(30px); }
      60%  { opacity:1; transform: scale(1.05) translateY(-2px); }
      80%  { transform: scale(0.98) translateY(1px); }
      100% { opacity:1; transform: scale(1) translateY(0); }
    }
    @keyframes bob9 {
      0%,100% { transform: translateY(0px); }
      25%  { transform: translateY(-2px) rotate(-1deg); }
      50%  { transform: translateY(-3px); }
      75%  { transform: translateY(-1.5px) rotate(1deg); }
    }
    .cw9 {
      opacity:0;
      animation: popIn9 0.5s cubic-bezier(0.34,1.56,0.64,1) 0.73s forwards;
    }
    .icon9 {
      animation: bob9 2.6s ease-in-out 0.16s infinite;
      transform-box: fill-box;
      transform-origin: center;
    }
    @keyframes popIn10 {
      0%   { opacity:0; transform: scale(0.4) translateY(30px); }
      60%  { opacity:1; transform: scale(1.05) translateY(-2px); }
      80%  { transform: scale(0.98) translateY(1px); }
      100% { opacity:1; transform: scale(1) translateY(0); }
    }
    @keyframes bob10 {
      0%,100% { transform: translateY(0px); }
      25%  { transform: translateY(-2px) rotate(-1deg); }
      50%  { transform: translateY(-3px); }
      75%  { transform: translateY(-1.5px) rotate(1deg); }
    }
    .cw10 {
      opacity:0;
      animation: popIn10 0.5s cubic-bezier(0.34,1.56,0.64,1) 0.80s forwards;
    }
    .icon10 {
      animation: bob10 2.6s ease-in-out 1.39s infinite;
      transform-box: fill-box;
      transform-origin: center;
    }
    @keyframes popIn11 {
      0%   { opacity:0; transform: scale(0.4) translateY(30px); }
      60%  { opacity:1; transform: scale(1.05) translateY(-2px); }
      80%  { transform: scale(0.98) translateY(1px); }
      100% { opacity:1; transform: scale(1) translateY(0); }
    }
    @keyframes bob11 {
      0%,100% { transform: translateY(0px); }
      25%  { transform: translateY(-2px) rotate(-1deg); }
      50%  { transform: translateY(-3px); }
      75%  { transform: translateY(-1.5px) rotate(1deg); }
    }
    .cw11 {
      opacity:0;
      animation: popIn11 0.5s cubic-bezier(0.34,1.56,0.64,1) 0.87s forwards;
    }
    .icon11 {
      animation: bob11 2.6s ease-in-out 0.53s infinite;
      transform-box: fill-box;
      transform-origin: center;
    }
    @keyframes popIn12 {
      0%   { opacity:0; transform: scale(0.4) translateY(30px); }
      60%  { opacity:1; transform: scale(1.05) translateY(-2px); }
      80%  { transform: scale(0.98) translateY(1px); }
      100% { opacity:1; transform: scale(1) translateY(0); }
    }
    @keyframes bob12 {
      0%,100% { transform: translateY(0px); }
      25%  { transform: translateY(-2px) rotate(-1deg); }
      50%  { transform: translateY(-3px); }
      75%  { transform: translateY(-1.5px) rotate(1deg); }
    }
    .cw12 {
      opacity:0;
      animation: popIn12 0.5s cubic-bezier(0.34,1.56,0.64,1) 0.94s forwards;
    }
    .icon12 {
      animation: bob12 2.6s ease-in-out 0.76s infinite;
      transform-box: fill-box;
      transform-origin: center;
    }
    @keyframes popIn13 {
      0%   { opacity:0; transform: scale(0.4) translateY(30px); }
      60%  { opacity:1; transform: scale(1.05) translateY(-2px); }
      80%  { transform: scale(0.98) translateY(1px); }
      100% { opacity:1; transform: scale(1) translateY(0); }
    }
    @keyframes bob13 {
      0%,100% { transform: translateY(0px); }
      25%  { transform: translateY(-2px) rotate(-1deg); }
      50%  { transform: translateY(-3px); }
      75%  { transform: translateY(-1.5px) rotate(1deg); }
    }
    .cw13 {
      opacity:0;
      animation: popIn13 0.5s cubic-bezier(0.34,1.56,0.64,1) 1.01s forwards;
    }
    .icon13 {
      animation: bob13 2.6s ease-in-out 1.31s infinite;
      transform-box: fill-box;
      transform-origin: center;
    }
    @keyframes popIn14 {
      0%   { opacity:0; transform: scale(0.4) translateY(30px); }
      60%  { opacity:1; transform: scale(1.05) translateY(-2px); }
      80%  { transform: scale(0.98) translateY(1px); }
      100% { opacity:1; transform: scale(1) translateY(0); }
    }
    @keyframes bob14 {
      0%,100% { transform: translateY(0px); }
      25%  { transform: translateY(-2px) rotate(-1deg); }
      50%  { transform: translateY(-3px); }
      75%  { transform: translateY(-1.5px) rotate(1deg); }
    }
    .cw14 {
      opacity:0;
      animation: popIn14 0.5s cubic-bezier(0.34,1.56,0.64,1) 1.08s forwards;
    }
    .icon14 {
      animation: bob14 2.6s ease-in-out 0.69s infinite;
      transform-box: fill-box;
      transform-origin: center;
    }
    @keyframes popIn15 {
      0%   { opacity:0; transform: scale(0.4) translateY(30px); }
      60%  { opacity:1; transform: scale(1.05) translateY(-2px); }
      80%  { transform: scale(0.98) translateY(1px); }
      100% { opacity:1; transform: scale(1) translateY(0); }
    }
    @keyframes bob15 {
      0%,100% { transform: translateY(0px); }
      25%  { transform: translateY(-2px) rotate(-1deg); }
      50%  { transform: translateY(-3px); }
      75%  { transform: translateY(-1.5px) rotate(1deg); }
    }
    .cw15 {
      opacity:0;
      animation: popIn15 0.5s cubic-bezier(0.34,1.56,0.64,1) 1.15s forwards;
    }
    .icon15 {
      animation: bob15 2.6s ease-in-out 1.38s infinite;
      transform-box: fill-box;
      transform-origin: center;
    }
    @keyframes popIn16 {
      0%   { opacity:0; transform: scale(0.4) translateY(30px); }
      60%  { opacity:1; transform: scale(1.05) translateY(-2px); }
      80%  { transform: scale(0.98) translateY(1px); }
      100% { opacity:1; transform: scale(1) translateY(0); }
    }
    @keyframes bob16 {
      0%,100% { transform: translateY(0px); }
      25%  { transform: translateY(-2px) rotate(-1deg); }
      50%  { transform: translateY(-3px); }
      75%  { transform: translateY(-1.5px) rotate(1deg); }
    }
    .cw16 {
      opacity:0;
      animation: popIn16 0.5s cubic-bezier(0.34,1.56,0.64,1) 1.22s forwards;
    }
    .icon16 {
      animation: bob16 2.6s ease-in-out 0.60s infinite;
      transform-box: fill-box;
      transform-origin: center;
    }
    @keyframes popIn17 {
      0%   { opacity:0; transform: scale(0.4) translateY(30px); }
      60%  { opacity:1; transform: scale(1.05) translateY(-2px); }
      80%  { transform: scale(0.98) translateY(1px); }
      100% { opacity:1; transform: scale(1) translateY(0); }
    }
    @keyframes bob17 {
      0%,100% { transform: translateY(0px); }
      25%  { transform: translateY(-2px) rotate(-1deg); }
      50%  { transform: translateY(-3px); }
      75%  { transform: translateY(-1.5px) rotate(1deg); }
    }
    .cw17 {
      opacity:0;
      animation: popIn17 0.5s cubic-bezier(0.34,1.56,0.64,1) 1.29s forwards;
    }
    .icon17 {
      animation: bob17 2.6s ease-in-out 1.11s infinite;
      transform-box: fill-box;
      transform-origin: center;
    }
    @keyframes popIn18 {
      0%   { opacity:0; transform: scale(0.4) translateY(30px); }
      60%  { opacity:1; transform: scale(1.05) translateY(-2px); }
      80%  { transform: scale(0.98) translateY(1px); }
      100% { opacity:1; transform: scale(1) translateY(0); }
    }
    @keyframes bob18 {
      0%,100% { transform: translateY(0px); }
      25%  { transform: translateY(-2px) rotate(-1deg); }
      50%  { transform: translateY(-3px); }
      75%  { transform: translateY(-1.5px) rotate(1deg); }
    }
    .cw18 {
      opacity:0;
      animation: popIn18 0.5s cubic-bezier(0.34,1.56,0.64,1) 1.36s forwards;
    }
    .icon18 {
      animation: bob18 2.6s ease-in-out 0.10s infinite;
      transform-box: fill-box;
      transform-origin: center;
    }
    @keyframes popIn19 {
      0%   { opacity:0; transform: scale(0.4) translateY(30px); }
      60%  { opacity:1; transform: scale(1.05) translateY(-2px); }
      80%  { transform: scale(0.98) translateY(1px); }
      100% { opacity:1; transform: scale(1) translateY(0); }
    }
    @keyframes bob19 {
      0%,100% { transform: translateY(0px); }
      25%  { transform: translateY(-2px) rotate(-1deg); }
      50%  { transform: translateY(-3px); }
      75%  { transform: translateY(-1.5px) rotate(1deg); }
    }
    .cw19 {
      opacity:0;
      animation: popIn19 0.5s cubic-bezier(0.34,1.56,0.64,1) 1.43s forwards;
    }
    .icon19 {
      animation: bob19 2.6s ease-in-out 0.51s infinite;
      transform-box: fill-box;
      transform-origin: center;
    }
    @keyframes popIn20 {
      0%   { opacity:0; transform: scale(0.4) translateY(30px); }
      60%  { opacity:1; transform: scale(1.05) translateY(-2px); }
      80%  { transform: scale(0.98) translateY(1px); }
      100% { opacity:1; transform: scale(1) translateY(0); }
    }
    @keyframes bob20 {
      0%,100% { transform: translateY(0px); }
      25%  { transform: translateY(-2px) rotate(-1deg); }
      50%  { transform: translateY(-3px); }
      75%  { transform: translateY(-1.5px) rotate(1deg); }
    }
    .cw20 {
      opacity:0;
      animation: popIn20 0.5s cubic-bezier(0.34,1.56,0.64,1) 1.50s forwards;
    }
    .icon20 {
      animation: bob20 2.6s ease-in-out 1.50s infinite;
      transform-box: fill-box;
      transform-origin: center;
    }
    @keyframes popIn21 {
      0%   { opacity:0; transform: scale(0.4) translateY(30px); }
      60%  { opacity:1; transform: scale(1.05) translateY(-2px); }
      80%  { transform: scale(0.98) translateY(1px); }
      100% { opacity:1; transform: scale(1) translateY(0); }
    }
    @keyframes bob21 {
      0%,100% { transform: translateY(0px); }
      25%  { transform: translateY(-2px) rotate(-1deg); }
      50%  { transform: translateY(-3px); }
      75%  { transform: translateY(-1.5px) rotate(1deg); }
    }
    .cw21 {
      opacity:0;
      animation: popIn21 0.5s cubic-bezier(0.34,1.56,0.64,1) 1.57s forwards;
    }
    .icon21 {
      animation: bob21 2.6s ease-in-out 0.73s infinite;
      transform-box: fill-box;
      transform-origin: center;
    }
    @keyframes popIn22 {
      0%   { opacity:0; transform: scale(0.4) translateY(30px); }
      60%  { opacity:1; transform: scale(1.05) translateY(-2px); }
      80%  { transform: scale(0.98) translateY(1px); }
      100% { opacity:1; transform: scale(1) translateY(0); }
    }
    @keyframes bob22 {
      0%,100% { transform: translateY(0px); }
      25%  { transform: translateY(-2px) rotate(-1deg); }
      50%  { transform: translateY(-3px); }
      75%  { transform: translateY(-1.5px) rotate(1deg); }
    }
    .cw22 {
      opacity:0;
      animation: popIn22 0.5s cubic-bezier(0.34,1.56,0.64,1) 1.64s forwards;
    }
    .icon22 {
      animation: bob22 2.6s ease-in-out 0.88s infinite;
      transform-box: fill-box;
      transform-origin: center;
    }
    @keyframes popIn23 {
      0%   { opacity:0; transform: scale(0.4) translateY(30px); }
      60%  { opacity:1; transform: scale(1.05) translateY(-2px); }
      80%  { transform: scale(0.98) translateY(1px); }
      100% { opacity:1; transform: scale(1) translateY(0); }
    }
    @keyframes bob23 {
      0%,100% { transform: translateY(0px); }
      25%  { transform: translateY(-2px) rotate(-1deg); }
      50%  { transform: translateY(-3px); }
      75%  { transform: translateY(-1.5px) rotate(1deg); }
    }
    .cw23 {
      opacity:0;
      animation: popIn23 0.5s cubic-bezier(0.34,1.56,0.64,1) 1.71s forwards;
    }
    .icon23 {
      animation: bob23 2.6s ease-in-out 0.60s infinite;
      transform-box: fill-box;
      transform-origin: center;
    }
    @keyframes popIn24 {
      0%   { opacity:0; transform: scale(0.4) translateY(30px); }
      60%  { opacity:1; transform: scale(1.05) translateY(-2px); }
      80%  { transform: scale(0.98) translateY(1px); }
      100% { opacity:1; transform: scale(1) translateY(0); }
    }
    @keyframes bob24 {
      0%,100% { transform: translateY(0px); }
      25%  { transform: translateY(-2px) rotate(-1deg); }
      50%  { transform: translateY(-3px); }
      75%  { transform: translateY(-1.5px) rotate(1deg); }
    }
    .cw24 {
      opacity:0;
      animation: popIn24 0.5s cubic-bezier(0.34,1.56,0.64,1) 1.78s forwards;
    }
    .icon24 {
      animation: bob24 2.6s ease-in-out 0.89s infinite;
      transform-box: fill-box;
      transform-origin: center;
    }
    @keyframes popIn25 {
      0%   { opacity:0; transform: scale(0.4) translateY(30px); }
      60%  { opacity:1; transform: scale(1.05) translateY(-2px); }
      80%  { transform: scale(0.98) translateY(1px); }
      100% { opacity:1; transform: scale(1) translateY(0); }
    }
    @keyframes bob25 {
      0%,100% { transform: translateY(0px); }
      25%  { transform: translateY(-2px) rotate(-1deg); }
      50%  { transform: translateY(-3px); }
      75%  { transform: translateY(-1.5px) rotate(1deg); }
    }
    .cw25 {
      opacity:0;
      animation: popIn25 0.5s cubic-bezier(0.34,1.56,0.64,1) 1.85s forwards;
    }
    .icon25 {
      animation: bob25 2.6s ease-in-out 1.15s infinite;
      transform-box: fill-box;
      transform-origin: center;
    }
    @keyframes popIn26 {
      0%   { opacity:0; transform: scale(0.4) translateY(30px); }
      60%  { opacity:1; transform: scale(1.05) translateY(-2px); }
      80%  { transform: scale(0.98) translateY(1px); }
      100% { opacity:1; transform: scale(1) translateY(0); }
    }
    @keyframes bob26 {
      0%,100% { transform: translateY(0px); }
      25%  { transform: translateY(-2px) rotate(-1deg); }
      50%  { transform: translateY(-3px); }
      75%  { transform: translateY(-1.5px) rotate(1deg); }
    }
    .cw26 {
      opacity:0;
      animation: popIn26 0.5s cubic-bezier(0.34,1.56,0.64,1) 1.92s forwards;
    }
    .icon26 {
      animation: bob26 2.6s ease-in-out 0.80s infinite;
      transform-box: fill-box;
      transform-origin: center;
    }
    @keyframes popIn27 {
      0%   { opacity:0; transform: scale(0.4) translateY(30px); }
      60%  { opacity:1; transform: scale(1.05) translateY(-2px); }
      80%  { transform: scale(0.98) translateY(1px); }
      100% { opacity:1; transform: scale(1) translateY(0); }
    }
    @keyframes bob27 {
      0%,100% { transform: translateY(0px); }
      25%  { transform: translateY(-2px) rotate(-1deg); }
      50%  { transform: translateY(-3px); }
      75%  { transform: translateY(-1.5px) rotate(1deg); }
    }
    .cw27 {
      opacity:0;
      animation: popIn27 0.5s cubic-bezier(0.34,1.56,0.64,1) 1.99s forwards;
    }
    .icon27 {
      animation: bob27 2.6s ease-in-out 1.29s infinite;
      transform-box: fill-box;
      transform-origin: center;
    }
    @keyframes popIn28 {
      0%   { opacity:0; transform: scale(0.4) translateY(30px); }
      60%  { opacity:1; transform: scale(1.05) translateY(-2px); }
      80%  { transform: scale(0.98) translateY(1px); }
      100% { opacity:1; transform: scale(1) translateY(0); }
    }
    @keyframes bob28 {
      0%,100% { transform: translateY(0px); }
      25%  { transform: translateY(-2px) rotate(-1deg); }
      50%  { transform: translateY(-3px); }
      75%  { transform: translateY(-1.5px) rotate(1deg); }
    }
    .cw28 {
      opacity:0;
      animation: popIn28 0.5s cubic-bezier(0.34,1.56,0.64,1) 2.06s forwards;
    }
    .icon28 {
      animation: bob28 2.6s ease-in-out 0.53s infinite;
      transform-box: fill-box;
      transform-origin: center;
    }
    @keyframes popIn29 {
      0%   { opacity:0; transform: scale(0.4) translateY(30px); }
      60%  { opacity:1; transform: scale(1.05) translateY(-2px); }
      80%  { transform: scale(0.98) translateY(1px); }
      100% { opacity:1; transform: scale(1) translateY(0); }
    }
    @keyframes bob29 {
      0%,100% { transform: translateY(0px); }
      25%  { transform: translateY(-2px) rotate(-1deg); }
      50%  { transform: translateY(-3px); }
      75%  { transform: translateY(-1.5px) rotate(1deg); }
    }
    .cw29 {
      opacity:0;
      animation: popIn29 0.5s cubic-bezier(0.34,1.56,0.64,1) 2.13s forwards;
    }
    .icon29 {
      animation: bob29 2.6s ease-in-out 1.06s infinite;
      transform-box: fill-box;
      transform-origin: center;
    }
    @keyframes popIn30 {
      0%   { opacity:0; transform: scale(0.4) translateY(30px); }
      60%  { opacity:1; transform: scale(1.05) translateY(-2px); }
      80%  { transform: scale(0.98) translateY(1px); }
      100% { opacity:1; transform: scale(1) translateY(0); }
    }
    @keyframes bob30 {
      0%,100% { transform: translateY(0px); }
      25%  { transform: translateY(-2px) rotate(-1deg); }
      50%  { transform: translateY(-3px); }
      75%  { transform: translateY(-1.5px) rotate(1deg); }
    }
    .cw30 {
      opacity:0;
      animation: popIn30 0.5s cubic-bezier(0.34,1.56,0.64,1) 2.20s forwards;
    }
    .icon30 {
      animation: bob30 2.6s ease-in-out 1.42s infinite;
      transform-box: fill-box;
      transform-origin: center;
    }
    @keyframes popIn31 {
      0%   { opacity:0; transform: scale(0.4) translateY(30px); }
      60%  { opacity:1; transform: scale(1.05) translateY(-2px); }
      80%  { transform: scale(0.98) translateY(1px); }
      100% { opacity:1; transform: scale(1) translateY(0); }
    }
    @keyframes bob31 {
      0%,100% { transform: translateY(0px); }
      25%  { transform: translateY(-2px) rotate(-1deg); }
      50%  { transform: translateY(-3px); }
      75%  { transform: translateY(-1.5px) rotate(1deg); }
    }
    .cw31 {
      opacity:0;
      animation: popIn31 0.5s cubic-bezier(0.34,1.56,0.64,1) 2.27s forwards;
    }
    .icon31 {
      animation: bob31 2.6s ease-in-out 1.34s infinite;
      transform-box: fill-box;
      transform-origin: center;
    }
    @keyframes popIn32 {
      0%   { opacity:0; transform: scale(0.4) translateY(30px); }
      60%  { opacity:1; transform: scale(1.05) translateY(-2px); }
      80%  { transform: scale(0.98) translateY(1px); }
      100% { opacity:1; transform: scale(1) translateY(0); }
    }
    @keyframes bob32 {
      0%,100% { transform: translateY(0px); }
      25%  { transform: translateY(-2px) rotate(-1deg); }
      50%  { transform: translateY(-3px); }
      75%  { transform: translateY(-1.5px) rotate(1deg); }
    }
    .cw32 {
      opacity:0;
      animation: popIn32 0.5s cubic-bezier(0.34,1.56,0.64,1) 2.34s forwards;
    }
    .icon32 {
      animation: bob32 2.6s ease-in-out 1.44s infinite;
      transform-box: fill-box;
      transform-origin: center;
    }
    @keyframes popIn33 {
      0%   { opacity:0; transform: scale(0.4) translateY(30px); }
      60%  { opacity:1; transform: scale(1.05) translateY(-2px); }
      80%  { transform: scale(0.98) translateY(1px); }
      100% { opacity:1; transform: scale(1) translateY(0); }
    }
    @keyframes bob33 {
      0%,100% { transform: translateY(0px); }
      25%  { transform: translateY(-2px) rotate(-1deg); }
      50%  { transform: translateY(-3px); }
      75%  { transform: translateY(-1.5px) rotate(1deg); }
    }
    .cw33 {
      opacity:0;
      animation: popIn33 0.5s cubic-bezier(0.34,1.56,0.64,1) 2.41s forwards;
    }
    .icon33 {
      animation: bob33 2.6s ease-in-out 1.29s infinite;
      transform-box: fill-box;
      transform-origin: center;
    }
    @keyframes popIn34 {
      0%   { opacity:0; transform: scale(0.4) translateY(30px); }
      60%  { opacity:1; transform: scale(1.05) translateY(-2px); }
      80%  { transform: scale(0.98) translateY(1px); }
      100% { opacity:1; transform: scale(1) translateY(0); }
    }
    @keyframes bob34 {
      0%,100% { transform: translateY(0px); }
      25%  { transform: translateY(-2px) rotate(-1deg); }
      50%  { transform: translateY(-3px); }
      75%  { transform: translateY(-1.5px) rotate(1deg); }
    }
    .cw34 {
      opacity:0;
      animation: popIn34 0.5s cubic-bezier(0.34,1.56,0.64,1) 2.48s forwards;
    }
    .icon34 {
      animation: bob34 2.6s ease-in-out 0.72s infinite;
      transform-box: fill-box;
      transform-origin: center;
    }
    @keyframes popIn35 {
      0%   { opacity:0; transform: scale(0.4) translateY(30px); }
      60%  { opacity:1; transform: scale(1.05) translateY(-2px); }
      80%  { transform: scale(0.98) translateY(1px); }
      100% { opacity:1; transform: scale(1) translateY(0); }
    }
    @keyframes bob35 {
      0%,100% { transform: translateY(0px); }
      25%  { transform: translateY(-2px) rotate(-1deg); }
      50%  { transform: translateY(-3px); }
      75%  { transform: translateY(-1.5px) rotate(1deg); }
    }
    .cw35 {
      opacity:0;
      animation: popIn35 0.5s cubic-bezier(0.34,1.56,0.64,1) 2.55s forwards;
    }
    .icon35 {
      animation: bob35 2.6s ease-in-out 0.48s infinite;
      transform-box: fill-box;
      transform-origin: center;
    }
    @keyframes popIn36 {
      0%   { opacity:0; transform: scale(0.4) translateY(30px); }
      60%  { opacity:1; transform: scale(1.05) translateY(-2px); }
      80%  { transform: scale(0.98) translateY(1px); }
      100% { opacity:1; transform: scale(1) translateY(0); }
    }
    @keyframes bob36 {
      0%,100% { transform: translateY(0px); }
      25%  { transform: translateY(-2px) rotate(-1deg); }
      50%  { transform: translateY(-3px); }
      75%  { transform: translateY(-1.5px) rotate(1deg); }
    }
    .cw36 {
      opacity:0;
      animation: popIn36 0.5s cubic-bezier(0.34,1.56,0.64,1) 2.62s forwards;
    }
    .icon36 {
      animation: bob36 2.6s ease-in-out 0.42s infinite;
      transform-box: fill-box;
      transform-origin: center;
    }
    @keyframes popIn37 {
      0%   { opacity:0; transform: scale(0.4) translateY(30px); }
      60%  { opacity:1; transform: scale(1.05) translateY(-2px); }
      80%  { transform: scale(0.98) translateY(1px); }
      100% { opacity:1; transform: scale(1) translateY(0); }
    }
    @keyframes bob37 {
      0%,100% { transform: translateY(0px); }
      25%  { transform: translateY(-2px) rotate(-1deg); }
      50%  { transform: translateY(-3px); }
      75%  { transform: translateY(-1.5px) rotate(1deg); }
    }
    .cw37 {
      opacity:0;
      animation: popIn37 0.5s cubic-bezier(0.34,1.56,0.64,1) 2.69s forwards;
    }
    .icon37 {
      animation: bob37 2.6s ease-in-out 0.02s infinite;
      transform-box: fill-box;
      transform-origin: center;
    }</style></defs>
  <text x="430" y="38" text-anchor="middle" class="sec-title">🛠  LANGUAGE · TOOLS · COMPETITIVE · AI</text><line x1="14" y1="166" x2="846" y2="166" stroke="#21262d" stroke-width="1"/><g class="cw0" style="transform-origin:115px 105px"><rect x="75" y="60" width="80" height="90" rx="12" fill="#161b22" stroke="#30363d" stroke-width="1"/><rect x="75" y="60" width="80" height="90" rx="12" fill="url(#shine)" opacity="0"/><g class="icon0" style="transform-origin:115px 98px"><g transform="translate(99,82) scale(1.3333333333333333)"><path d="M14.25.18l.9.2.73.26.59.3.45.32.34.34.25.34.16.33.1.3.04.26.02.2-.01.13V8.5l-.05.63-.13.55-.21.46-.26.38-.3.31-.33.25-.35.19-.35.14-.33.1-.3.07-.26.04-.21.02H8.77l-.69.05-.59.14-.5.22-.41.27-.33.32-.27.35-.2.36-.15.37-.1.35-.07.32-.04.27-.02.21v3.06H3.17l-.21-.03-.28-.07-.32-.12-.35-.18-.36-.26-.36-.36-.35-.46-.32-.59-.28-.73-.21-.88-.14-1.05-.05-1.23.06-1.22.16-1.04.24-.87.32-.71.36-.57.4-.44.42-.33.42-.24.4-.16.36-.1.32-.05.24-.01h.16l.06.01h8.16v-.83H6.18l-.01-2.75-.02-.37.05-.34.11-.31.17-.28.25-.26.31-.23.38-.2.44-.18.51-.15.58-.12.64-.1.71-.06.77-.04.84-.02 1.27.05zm-6.3 1.98l-.23.33-.08.41.08.41.23.34.33.22.41.09.41-.09.33-.22.23-.34.08-.41-.08-.41-.23-.33-.33-.22-.41-.09-.41.09zm13.09 3.95l.28.06.32.12.35.18.36.27.36.35.35.47.32.59.28.73.21.88.14 1.04.05 1.23-.06 1.23-.16 1.04-.24.86-.32.71-.36.57-.4.45-.42.33-.42.24-.4.16-.36.09-.32.05-.24.02-.16-.01h-8.22v.82h5.84l.01 2.76.02.36-.05.34-.11.31-.17.29-.25.25-.31.24-.38.2-.44.17-.51.15-.58.13-.64.09-.71.07-.77.04-.84.01-1.27-.04-1.07-.14-.9-.2-.73-.25-.59-.3-.45-.33-.34-.34-.25-.34-.16-.33-.1-.3-.04-.25-.02-.2.01-.13v-5.34l.05-.64.13-.54.21-.46.26-.38.3-.32.33-.24.35-.2.35-.14.33-.1.3-.06.26-.04.21-.02.13-.01h5.84l.69-.05.59-.14.5-.21.41-.28.33-.32.27-.35.2-.36.15-.36.1-.35.07-.32.04-.28.02-.21V6.07h2.09l.14.01zm-6.47 14.25l-.23.33-.08.41.08.41.23.33.33.23.41.08.41-.08.33-.23.23-.33.08-.41-.08-.41-.23-.33-.33-.23-.41-.08-.41.08z" fill="#3776AB"/></g></g><text x="115" y="126" text-anchor="middle" class="lbl">Python</text></g><g class="cw1" style="transform-origin:205px 105px"><rect x="165" y="60" width="80" height="90" rx="12" fill="#161b22" stroke="#30363d" stroke-width="1"/><rect x="165" y="60" width="80" height="90" rx="12" fill="url(#shine)" opacity="0"/><g class="icon1" style="transform-origin:205px 98px"><g transform="translate(189,82) scale(1.3333333333333333)"><path d="M16.5921 9.1962s-.354-3.298-3.627-3.39c-3.2741-.09-4.9552 2.474-4.9552 6.14 0 3.6651 1.858 6.5972 5.0451 6.5972 3.184 0 3.5381-3.665 3.5381-3.665l6.1041.365s.36 3.31-2.196 5.836c-2.552 2.5241-5.6901 2.9371-7.8762 2.9201-2.19-.017-5.2261.034-8.1602-2.97-2.938-3.0101-3.436-5.9302-3.436-8.8002 0-2.8701.556-6.6702 4.047-9.5502C7.444.72 9.849 0 12.254 0c10.0422 0 10.7172 9.2602 10.7172 9.2602z" fill="#A8B9CC"/></g></g><text x="205" y="126" text-anchor="middle" class="lbl">C</text></g><g class="cw2" style="transform-origin:295px 105px"><rect x="255" y="60" width="80" height="90" rx="12" fill="#161b22" stroke="#30363d" stroke-width="1"/><rect x="255" y="60" width="80" height="90" rx="12" fill="url(#shine)" opacity="0"/><g class="icon2" style="transform-origin:295px 98px"><g transform="translate(279,82) scale(1.3333333333333333)"><path d="M12 .0387C5.3729.0384.0003 5.3931 0 11.9988c-.001 6.6066 5.372 11.9628 12 11.9625 6.628.0003 12.001-5.3559 12-11.9625-.0003-6.6057-5.3729-11.9604-12-11.96m-.829 5.4153h7.55l-7.5805 5.3284h5.1828L5.279 18.5436q2.9466-6.5444 5.892-13.0896" fill="#009688"/></g></g><text x="295" y="126" text-anchor="middle" class="lbl">FastAPI</text></g><g class="cw3" style="transform-origin:385px 105px"><rect x="345" y="60" width="80" height="90" rx="12" fill="#161b22" stroke="#30363d" stroke-width="1"/><rect x="345" y="60" width="80" height="90" rx="12" fill="url(#shine)" opacity="0"/><g class="icon3" style="transform-origin:385px 98px"><g transform="translate(369,82) scale(1.3333333333333333)"><path d="M12 .297c-6.63 0-12 5.373-12 12 0 5.303 3.438 9.8 8.205 11.385.6.113.82-.258.82-.577 0-.285-.01-1.04-.015-2.04-3.338.724-4.042-1.61-4.042-1.61C4.422 18.07 3.633 17.7 3.633 17.7c-1.087-.744.084-.729.084-.729 1.205.084 1.838 1.236 1.838 1.236 1.07 1.835 2.809 1.305 3.495.998.108-.776.417-1.305.76-1.605-2.665-.3-5.466-1.332-5.466-5.93 0-1.31.465-2.38 1.235-3.22-.135-.303-.54-1.523.105-3.176 0 0 1.005-.322 3.3 1.23.96-.267 1.98-.399 3-.405 1.02.006 2.04.138 3 .405 2.28-1.552 3.285-1.23 3.285-1.23.645 1.653.24 2.873.12 3.176.765.84 1.23 1.91 1.23 3.22 0 4.61-2.805 5.625-5.475 5.92.42.36.81 1.096.81 2.22 0 1.606-.015 2.896-.015 3.286 0 .315.21.69.825.57C20.565 22.092 24 17.592 24 12.297c0-6.627-5.373-12-12-12" fill="#ffffff"/></g></g><text x="385" y="126" text-anchor="middle" class="lbl">GitHub</text></g><g class="cw4" style="transform-origin:475px 105px"><rect x="435" y="60" width="80" height="90" rx="12" fill="#161b22" stroke="#30363d" stroke-width="1"/><rect x="435" y="60" width="80" height="90" rx="12" fill="url(#shine)" opacity="0"/><g class="icon4" style="transform-origin:475px 98px"><g transform="translate(459,82) scale(1.3333333333333333)"><path d="M13.09 23.549a1.54 1.54 0 0 1-2.18 0L.451 13.089a1.54 1.54 0 0 1 0-2.179l7.191-7.19 2.733 2.733a1.85 1.85 0 0 0 .964 2.326v6.66a1.849 1.849 0 1 0 1.54 0V8.957l2.508 2.508a1.85 1.85 0 1 0 1.09-1.09l-2.634-2.634a1.85 1.85 0 0 0-2.378-2.377L8.73 2.63 10.91.451a1.54 1.54 0 0 1 2.179 0l10.459 10.46a1.54 1.54 0 0 1 0 2.179z" fill="#F03C2E"/></g></g><text x="475" y="126" text-anchor="middle" class="lbl">Git</text></g><g class="cw5" style="transform-origin:565px 105px"><rect x="525" y="60" width="80" height="90" rx="12" fill="#161b22" stroke="#30363d" stroke-width="1"/><rect x="525" y="60" width="80" height="90" rx="12" fill="url(#shine)" opacity="0"/><g class="icon5" style="transform-origin:565px 98px"><g transform="translate(549,82) scale(1.3333333333333333)"><path d="M1.5 0h21l-1.91 21.563L11.977 24l-8.564-2.438L1.5 0zm7.031 9.75l-.232-2.718 10.059.003.23-2.622L5.412 4.41l.698 8.01h9.126l-.326 3.426-2.91.804-2.955-.81-.188-2.11H6.248l.33 4.171L12 19.351l5.379-1.443.744-8.157H8.531z" fill="#E34F26"/></g></g><text x="565" y="126" text-anchor="middle" class="lbl">HTML</text></g><g class="cw6" style="transform-origin:655px 105px"><rect x="615" y="60" width="80" height="90" rx="12" fill="#161b22" stroke="#30363d" stroke-width="1"/><rect x="615" y="60" width="80" height="90" rx="12" fill="url(#shine)" opacity="0"/><g class="icon6" style="transform-origin:655px 98px"><g transform="translate(639,82) scale(1.3333333333333333)"><path d="M0 0v20.16A3.84 3.84 0 0 0 3.84 24h16.32A3.84 3.84 0 0 0 24 20.16V3.84A3.84 3.84 0 0 0 20.16 0Zm14.256 13.08c1.56 0 2.28 1.08 2.304 2.64h-1.608c.024-.288-.048-.6-.144-.84-.096-.192-.288-.264-.552-.264-.456 0-.696.264-.696.84-.024.576.288.888.768 1.08.72.288 1.608.744 1.92 1.296q.432.648.432 1.656c0 1.608-.912 2.592-2.496 2.592-1.656 0-2.4-1.032-2.424-2.688h1.68c0 .792.264 1.176.792 1.176.264 0 .456-.072.552-.24.192-.312.24-1.176-.048-1.512-.312-.408-.912-.6-1.32-.816q-.828-.396-1.224-.936c-.24-.36-.36-.888-.36-1.536 0-1.44.936-2.472 2.424-2.448m5.4 0c1.584 0 2.304 1.08 2.328 2.64h-1.608c0-.288-.048-.6-.168-.84-.096-.192-.264-.264-.528-.264-.48 0-.72.264-.72.84s.288.888.792 1.08c.696.288 1.608.744 1.92 1.296.264.432.408.984.408 1.656.024 1.608-.888 2.592-2.472 2.592-1.68 0-2.424-1.056-2.448-2.688h1.68c0 .744.264 1.176.792 1.176.264 0 .456-.072.552-.24.216-.312.264-1.176-.048-1.512-.288-.408-.888-.6-1.32-.816-.552-.264-.96-.576-1.2-.936s-.36-.888-.36-1.536c-.024-1.44.912-2.472 2.4-2.448m-11.031.018c.711-.006 1.419.198 1.839.63.432.432.672 1.128.648 1.992H9.336c.024-.456-.096-.792-.432-.96-.312-.144-.768-.048-.888.24-.12.264-.192.576-.168.864v3.504c0 .744.264 1.128.768 1.128a.65.65 0 0 0 .552-.264c.168-.24.192-.552.168-.84h1.776c.096 1.632-.984 2.712-2.568 2.688-1.536 0-2.496-.864-2.472-2.472v-4.032c0-.816.24-1.44.696-1.848.432-.408 1.146-.624 1.857-.63" fill="#663399"/></g></g><text x="655" y="126" text-anchor="middle" class="lbl">CSS</text></g><g class="cw7" style="transform-origin:745px 105px"><rect x="705" y="60" width="80" height="90" rx="12" fill="#161b22" stroke="#30363d" stroke-width="1"/><rect x="705" y="60" width="80" height="90" rx="12" fill="url(#shine)" opacity="0"/><g class="icon7" style="transform-origin:745px 98px"><g transform="translate(729,82) scale(1.3333333333333333)"><path d="M23.15 2.587L18.21.21a1.494 1.494 0 0 0-1.705.29l-9.46 8.63-4.12-3.128a.999.999 0 0 0-1.276.057L.327 7.261A1 1 0 0 0 .326 8.74L3.899 12 .326 15.26a1 1 0 0 0 .001 1.479L1.65 17.94a.999.999 0 0 0 1.276.057l4.12-3.128 9.46 8.63a1.492 1.492 0 0 0 1.704.29l4.942-2.377A1.5 1.5 0 0 0 24 20.06V3.939a1.5 1.5 0 0 0-.85-1.352zm-5.146 14.861L10.826 12l7.178-5.448v10.896z" fill="#007ACC"/></g></g><text x="745" y="126" text-anchor="middle" class="lbl">VSCode</text></g><text x="430" y="196" text-anchor="middle" class="sec-title">🤖  MACHINE LEARNING & DEEP LEARNING</text><line x1="14" y1="424" x2="846" y2="424" stroke="#21262d" stroke-width="1"/><g class="cw8" style="transform-origin:70px 263px"><rect x="30" y="218" width="80" height="90" rx="12" fill="#161b22" stroke="#30363d" stroke-width="1"/><rect x="30" y="218" width="80" height="90" rx="12" fill="url(#shine)" opacity="0"/><g class="icon8" style="transform-origin:70px 256px"><g transform="translate(54,240) scale(1.3333333333333333)"><path d="M15.601 5.53c-1.91.035-3.981.91-5.63 2.56-2.93 2.93-2.083 8.53-1.088 9.525.805.804 6.595 1.843 9.526-1.088a9.74 9.74 0 0 0 .584-.643c.043-.292.205-.66.489-1.106a1.848 1.848 0 0 1-.537.176c-.144.265-.37.55-.676.855-.354.335-.607.554-.76.656a.795.795 0 0 1-.437.152c-.35 0-.514-.308-.494-.924-.22.316-.425.549-.612.7a.914.914 0 0 1-.578.224c-.194 0-.36-.09-.496-.273a1.03 1.03 0 0 1-.193-.507 4.016 4.016 0 0 1-.726.583c-.224.132-.47.197-.74.197-.3 0-.543-.096-.727-.288a.978.978 0 0 1-.257-.524v.004c-.3.276-.564.48-.79.611a1.295 1.295 0 0 1-.649.197.693.693 0 0 1-.571-.275c-.145-.183-.218-.43-.218-.739 0-.464.101-1.02.302-1.67.201-.65.445-1.25.733-1.797l.842-.312a.21.21 0 0 1 .06-.013c.063 0 .116.047.157.14.04.095.061.221.061.38 0 .451-.104.888-.312 1.31-.207.422-.532.873-.974 1.352-.018.23-.027.388-.027.474 0 .193.036.345.106.458.071.113.165.169.282.169a.71.71 0 0 0 .382-.13c.132-.084.333-.26.602-.523.028-.418.187-.798.482-1.142.324-.38.685-.569 1.08-.569.206 0 .37.054.494.16a.524.524 0 0 1 .186.417c0 .458-.486.829-1.459 1.114.088.43.32.646.693.646a.807.807 0 0 0 .417-.117c.129-.076.321-.243.575-.497.032-.252.118-.495.259-.728.182-.3.416-.544.701-.73.285-.185.537-.278.756-.278.276 0 .47.127.58.381l.677-.374h.186l-.292.971c-.15.488-.226.823-.226 1.004 0 .19.067.285.202.285.086 0 .181-.045.285-.137.104-.092.25-.232.437-.42v.001c.143-.155.274-.32.392-.494-.19-.084-.285-.21-.285-.375 0-.17.058-.352.174-.545.116-.194.275-.29.479-.29.172 0 .258.088.258.265 0 .139-.05.338-.149.596.367-.04.687-.32.961-.842l.228-.01c1.059-2.438.828-5.075-.83-6.732-1.019-1.02-2.408-1.5-3.895-1.471zm4.725 8.203a8.938 8.938 0 0 1-1.333 2.151 1.09 1.09 0 0 0-.012.147c0 .168.047.309.14.423.092.113.206.17.34.17.296 0 .714-.264 1.254-.787-.001.04-.003.08-.003.121 0 .146.012.368.036.666l.733-.172c0-.2.003-.357.01-.474.01-.157.033-.33.066-.517.02-.11.07-.216.152-.315l.186-.216a5.276 5.276 0 0 1 .378-.397c.062-.055.116-.099.162-.13a.26.26 0 0 1 .123-.046c.055 0 .083.035.083.106 0 .07-.052.236-.156.497-.194.486-.292.848-.292 1.084 0 .175.046.314.136.418a.45.45 0 0 0 .358.155c.365 0 .803-.269 1.313-.808v-.381c-.361.426-.623.64-.784.64-.109 0-.163-.067-.163-.2 0-.1.065-.316.195-.65.19-.486.285-.836.285-1.048a.464.464 0 0 0-.112-.319.36.36 0 0 0-.282-.127c-.165 0-.354.077-.567.233-.213.156-.5.436-.863.84.053-.262.165-.622.335-1.08l-.809.156a6.54 6.54 0 0 0-.399 1.074c-.04.156-.07.316-.092.48a7.447 7.447 0 0 1-.49.45.38.38 0 0 1-.229.08.208.208 0 0 1-.174-.082.352.352 0 0 1-.064-.222c0-.1.019-.214.056-.343.038-.13.12-.373.249-.731l.308-.849zm-17.21-2.927c-.863-.016-1.67.263-2.261.854-1.352 1.352-1.07 3.827.631 5.527 1.7 1.701 4.95 1.21 5.527.632.467-.466 1.07-3.827-.631-5.527-.957-.957-2.158-1.465-3.267-1.486zm12.285.358h.166v.21H15.4zm.427 0h.166v.865l.46-.455h.195l-.364.362.428.684h-.198l-.357-.575-.164.166v.41h-.166zm1.016 0h.166v.21h-.166zm.481.122h.166v.288h.172v.135h-.172v.717c0 .037.006.062.02.075.012.013.037.02.074.02a.23.23 0 0 0 .078-.01v.141a.802.802 0 0 1-.136.014.23.23 0 0 1-.15-.043.15.15 0 0 1-.052-.123v-.79h-.141v-.136h.141zm-3.562.258c.081 0 .15.012.207.038.057.024.1.061.13.11s.045.106.045.173h-.176c-.006-.111-.075-.167-.208-.167a.285.285 0 0 0-.164.041.134.134 0 0 0-.06.117c0 .035.015.065.045.088.03.024.08.044.15.06l.16.039a.47.47 0 0 1 .224.105c.047.046.07.108.07.186a.3.3 0 0 1-.052.175.327.327 0 0 1-.152.116.585.585 0 0 1-.226.041c-.136 0-.24-.03-.309-.088-.069-.059-.105-.149-.109-.269h.176c.004.037.01.065.017.084a.166.166 0 0 0 .034.054c.044.043.112.065.204.065a.31.31 0 0 0 .177-.045.139.139 0 0 0 .067-.119.116.116 0 0 0-.038-.09.287.287 0 0 0-.124-.055l-.156-.038a1.248 1.248 0 0 1-.159-.05.359.359 0 0 1-.098-.061.22.22 0 0 1-.058-.083.32.32 0 0 1-.016-.108c0-.096.036-.174.109-.232a.45.45 0 0 1 .29-.087zm1.035 0a.46.46 0 0 1 .202.043.351.351 0 0 1 .187.212.577.577 0 0 1 .023.126h-.168a.256.256 0 0 0-.078-.168.242.242 0 0 0-.17-.06.248.248 0 0 0-.155.05.306.306 0 0 0-.1.144.662.662 0 0 0-.034.224.58.58 0 0 0 .035.214.299.299 0 0 0 .101.135.261.261 0 0 0 .157.048c.142 0 .227-.084.256-.252h.167a.519.519 0 0 1-.065.22.35.35 0 0 1-.146.138.464.464 0 0 1-.216.048.448.448 0 0 1-.246-.066.441.441 0 0 1-.161-.192.703.703 0 0 1-.057-.293c0-.085.01-.163.032-.233a.522.522 0 0 1 .095-.182.403.403 0 0 1 .15-.117.453.453 0 0 1 .191-.04zm.603.03h.166v1.046H15.4zm1.443 0h.166v1.046h-.166zm-5.05.618c-.08 0-.2.204-.356.611-.155.407-.308.977-.459 1.71.281-.312.509-.662.683-1.05.175-.387.262-.72.262-.999a.455.455 0 0 0-.036-.197c-.025-.05-.056-.075-.093-.075zm4.662 1.797c-.221 0-.431.188-.629.563-.197.376-.296.722-.296 1.038 0 .12.029.216.088.29a.273.273 0 0 0 .223.111c.221 0 .43-.188.625-.565.196-.377.294-.725.294-1.043a.457.457 0 0 0-.083-.29.269.269 0 0 0-.222-.104zm-2.848.007c-.146 0-.285.11-.417.333-.133.222-.2.51-.2.866.566-.159.849-.452.849-.881 0-.212-.077-.318-.232-.318Z" fill="#F7931E"/></g></g><text x="70" y="284" text-anchor="middle" class="lbl">Sklearn</text></g><g class="cw9" style="transform-origin:160px 263px"><rect x="120" y="218" width="80" height="90" rx="12" fill="#161b22" stroke="#30363d" stroke-width="1"/><rect x="120" y="218" width="80" height="90" rx="12" fill="url(#shine)" opacity="0"/><g class="icon9" style="transform-origin:160px 256px"><g transform="translate(144,240) scale(1.3333333333333333)"><path d="M1.292 5.856L11.54 0v24l-4.095-2.378V7.603l-6.168 3.564.015-5.31zm21.43 5.311l-.014-5.31L12.46 0v24l4.095-2.378V14.87l3.092 1.788-.018-4.618-3.074-1.756V7.603l6.168 3.564z" fill="#FF6F00"/></g></g><text x="160" y="284" text-anchor="middle" class="lbl">TensorFlow</text></g><g class="cw10" style="transform-origin:250px 263px"><rect x="210" y="218" width="80" height="90" rx="12" fill="#161b22" stroke="#30363d" stroke-width="1"/><rect x="210" y="218" width="80" height="90" rx="12" fill="url(#shine)" opacity="0"/><g class="icon10" style="transform-origin:250px 256px"><g transform="translate(234,240) scale(1.3333333333333333)"><path d="M12.005 0L4.952 7.053a9.865 9.865 0 000 14.022 9.866 9.866 0 0014.022 0c3.984-3.9 3.986-10.205.085-14.023l-1.744 1.743c2.904 2.905 2.904 7.634 0 10.538s-7.634 2.904-10.538 0-2.904-7.634 0-10.538l4.647-4.646.582-.665zm3.568 3.899a1.327 1.327 0 00-1.327 1.327 1.327 1.327 0 001.327 1.328A1.327 1.327 0 0016.9 5.226 1.327 1.327 0 0015.573 3.9z" fill="#EE4C2C"/></g></g><text x="250" y="284" text-anchor="middle" class="lbl">PyTorch</text></g><g class="cw11" style="transform-origin:340px 263px"><rect x="300" y="218" width="80" height="90" rx="12" fill="#161b22" stroke="#30363d" stroke-width="1"/><rect x="300" y="218" width="80" height="90" rx="12" fill="url(#shine)" opacity="0"/><g class="icon11" style="transform-origin:340px 256px"><g transform="translate(324,240) scale(1.3333333333333333)"><path d="M10.315 4.876L6.3048 2.8517l-4.401 2.1965 4.1186 2.0683zm1.8381.9277l4.2045 2.1223-4.3622 2.1906-4.125-2.0718zm5.6153-2.9213l4.3193 2.1658-3.863 1.9402-4.2131-2.1252zm-1.859-.9329L12.021 0 8.1742 1.9193l4.0068 2.0208zm-3.0401 16.7443V24l4.7107-2.3507-.0053-5.3085zm4.7037-4.2057l-.0052-5.2528-4.6985 2.3356v5.2546zm5.6553-.9845v5.327l-4.0178 2.0052-.0029-5.3028zm0-1.8626V6.4214l-4.0253 2.001.0034 5.2633zM11.2062 11.571L8.0333 9.9756v6.895s-3.8804-8.2564-4.2399-8.998c-.0463-.0957-.2371-.2007-.2858-.2262C2.8118 7.2812.773 6.2485.773 6.2485V18.43l2.8204 1.5076v-6.3674s3.8392 7.3775 3.878 7.458c.0389.0807.4245.8582.8362 1.1314.5485.363 2.8992 1.7766 2.8992 1.7766z" fill="#4DABCF"/></g></g><text x="340" y="284" text-anchor="middle" class="lbl">NumPy</text></g><g class="cw12" style="transform-origin:430px 263px"><rect x="390" y="218" width="80" height="90" rx="12" fill="#161b22" stroke="#30363d" stroke-width="1"/><rect x="390" y="218" width="80" height="90" rx="12" fill="url(#shine)" opacity="0"/><g class="icon12" style="transform-origin:430px 256px"><g transform="translate(414,240) scale(1.3333333333333333)"><path d="M16.922 0h2.623v18.104h-2.623zm-4.126 12.94h2.623v2.57h-2.623zm0-7.037h2.623v5.446h-2.623zm0 11.197h2.623v5.446h-2.623zM4.456 5.896h2.622V24H4.455zm4.213 2.559h2.623v2.57H8.67zm0 4.151h2.623v5.447H8.67zm0-11.187h2.623v5.446H8.67Z" fill="#E70488"/></g></g><text x="430" y="284" text-anchor="middle" class="lbl">Pandas</text></g><g class="cw13" style="transform-origin:520px 263px"><rect x="480" y="218" width="80" height="90" rx="12" fill="#161b22" stroke="#30363d" stroke-width="1"/><rect x="480" y="218" width="80" height="90" rx="12" fill="url(#shine)" opacity="0"/><g class="icon13" style="transform-origin:520px 256px"><g transform="translate(504,240) scale(1.3333333333333333)"><path d="M24 0H0v24h24V0zM8.45 5.16l.2.17v6.24l6.46-6.45h1.96l.2.4-5.14 5.1 5.47 7.94-.2.3h-1.94l-4.65-6.88-2.16 2.08v4.6l-.19.2H7l-.2-.2V5.33l.17-.17h1.48z" fill="#D00000"/></g></g><text x="520" y="284" text-anchor="middle" class="lbl">Keras</text></g><g class="cw14" style="transform-origin:610px 263px"><rect x="570" y="218" width="80" height="90" rx="12" fill="#161b22" stroke="#30363d" stroke-width="1"/><rect x="570" y="218" width="80" height="90" rx="12" fill="url(#shine)" opacity="0"/><g class="icon14" style="transform-origin:610px 256px"><g transform="translate(594,240) scale(1.3333333333333333)"><path d="M16.673 11.32l6.862-3.618c.233-.136.554.12.442.387L20.463 17.1zm-8.556-.229l3.473-5.187c.203-.328.578-.316.793-.028l7.886 11.75zm-3.375 7.25c-.28 0-.835-.284-.993-.716l-3.72-9.46c-.118-.331.139-.614.48-.464l19.474 10.306c-.149.147-.453.337-.72.334z" fill="#FF4B4B"/></g></g><text x="610" y="284" text-anchor="middle" class="lbl">Streamlit</text></g><g class="cw15" style="transform-origin:700px 263px"><rect x="660" y="218" width="80" height="90" rx="12" fill="#161b22" stroke="#30363d" stroke-width="1"/><rect x="660" y="218" width="80" height="90" rx="12" fill="url(#shine)" opacity="0"/><g class="icon15" style="transform-origin:700px 256px"><rect x="684" y="240" width="32" height="32" rx="7" fill="#0C55A5"/><text x="700" y="259.84" text-anchor="middle" font-size="9" font-family="sans-serif" font-weight="bold" fill="#ffffff">SciPy</text></g><text x="700" y="284" text-anchor="middle" class="lbl">SciPy</text></g><g class="cw16" style="transform-origin:790px 263px"><rect x="750" y="218" width="80" height="90" rx="12" fill="#161b22" stroke="#30363d" stroke-width="1"/><rect x="750" y="218" width="80" height="90" rx="12" fill="url(#shine)" opacity="0"/><g class="icon16" style="transform-origin:790px 256px"><g transform="translate(774,240) scale(1.3333333333333333)"><path d="M1.713.002A1.713 1.713 0 0 0 0 1.715a1.713 1.713 0 0 0 1.713 1.713 1.713 1.713 0 0 0 1.714-1.713A1.713 1.713 0 0 0 1.713.002Zm6.861 0a1.713 1.713 0 0 0-1.713 1.713 1.713 1.713 0 0 0 1.713 1.713 1.713 1.713 0 0 0 1.713-1.713A1.713 1.713 0 0 0 8.574.002Zm6.857 0a1.713 1.713 0 0 0-1.714 1.713 1.713 1.713 0 0 0 1.714 1.713 1.713 1.713 0 0 0 1.713-1.713A1.713 1.713 0 0 0 15.431.002zm6.856 0a1.713 1.713 0 0 0-1.713 1.713 1.713 1.713 0 0 0 1.713 1.713A1.713 1.713 0 0 0 24 1.715 1.713 1.713 0 0 0 22.287.002ZM1.713 6.859A1.713 1.713 0 0 0 0 8.572a1.713 1.713 0 0 0 1.713 1.713 1.713 1.713 0 0 0 1.714-1.713A1.713 1.713 0 0 0 1.713 6.86Zm6.861 0c-.948 0-1.713.765-1.713 1.713v13.713c0 .947.765 1.713 1.713 1.713.948 0 1.713-.766 1.713-1.713V8.572c0-.948-.765-1.713-1.713-1.713zm6.857 0a1.713 1.713 0 0 0-1.714 1.713 1.713 1.713 0 0 0 1.714 1.713 1.713 1.713 0 0 0 1.713-1.713 1.713 1.713 0 0 0-1.713-1.713zm6.856 0c-.947 0-1.713.765-1.713 1.713v13.713c0 .947.766 1.713 1.713 1.713.948 0 1.713-.766 1.713-1.713V8.572c0-.948-.765-1.713-1.713-1.713zM1.713 13.715C.766 13.715 0 14.48 0 15.428v6.857c0 .947.766 1.713 1.713 1.713.948 0 1.714-.766 1.714-1.713v-6.857c0-.948-.766-1.713-1.714-1.713zm13.718 0c-.948 0-1.714.765-1.714 1.713v6.857c0 .947.766 1.713 1.714 1.713.947 0 1.713-.766 1.713-1.713v-6.857c0-.948-.766-1.713-1.713-1.713z" fill="#7A76FF"/></g></g><text x="790" y="284" text-anchor="middle" class="lbl">Plotly</text></g><g class="cw17" style="transform-origin:340px 363px"><rect x="300" y="318" width="80" height="90" rx="12" fill="#161b22" stroke="#30363d" stroke-width="1"/><rect x="300" y="318" width="80" height="90" rx="12" fill="url(#shine)" opacity="0"/><g class="icon17" style="transform-origin:340px 356px"><rect x="324" y="340" width="32" height="32" rx="7" fill="#11557C"/><text x="340" y="359.84" text-anchor="middle" font-size="11" font-family="sans-serif" font-weight="bold" fill="#ffffff">MPL</text></g><text x="340" y="384" text-anchor="middle" class="lbl">Matplotlib</text></g><g class="cw18" style="transform-origin:430px 363px"><rect x="390" y="318" width="80" height="90" rx="12" fill="#161b22" stroke="#30363d" stroke-width="1"/><rect x="390" y="318" width="80" height="90" rx="12" fill="url(#shine)" opacity="0"/><g class="icon18" style="transform-origin:430px 356px"><rect x="414" y="340" width="32" height="32" rx="7" fill="#3A7DBF"/><text x="430" y="359.84" text-anchor="middle" font-size="14" font-family="sans-serif" font-weight="bold" fill="#ffffff">SB</text></g><text x="430" y="384" text-anchor="middle" class="lbl">Seaborn</text></g><g class="cw19" style="transform-origin:520px 363px"><rect x="480" y="318" width="80" height="90" rx="12" fill="#161b22" stroke="#30363d" stroke-width="1"/><rect x="480" y="318" width="80" height="90" rx="12" fill="url(#shine)" opacity="0"/><g class="icon19" style="transform-origin:520px 356px"><rect x="504" y="340" width="32" height="32" rx="7" fill="#FFD21E"/><text x="520" y="363.04" text-anchor="middle" font-size="18">🤗</text></g><text x="520" y="384" text-anchor="middle" class="lbl">HF</text></g><text x="430" y="454" text-anchor="middle" class="sec-title">🧠  LLM & AGENTIC AI</text><line x1="14" y1="582" x2="846" y2="582" stroke="#21262d" stroke-width="1"/><g class="cw20" style="transform-origin:160px 521px"><rect x="120" y="476" width="80" height="90" rx="12" fill="#161b22" stroke="#30363d" stroke-width="1"/><rect x="120" y="476" width="80" height="90" rx="12" fill="url(#shine)" opacity="0"/><g class="icon20" style="transform-origin:160px 514px"><g transform="translate(144,498) scale(1.3333333333333333)"><path d="M13.796 0a6.93 6.93 0 0 0-4.91 2.019L5.451 5.455l3.273 3.27 3.432-3.432a2.284 2.284 0 0 1 3.277 0 2.28 2.28 0 0 1 0 3.275L12 12.001l3.273 3.273 3.433-3.435c2.692-2.692 2.692-7.127 0-9.82A6.92 6.92 0 0 0 13.796 0m-5.07 8.728-3.433 3.434c-2.692 2.693-2.692 7.126 0 9.819A6.92 6.92 0 0 0 10.203 24a6.93 6.93 0 0 0 4.911-2.02l3.432-3.432-3.271-3.272-3.433 3.433a2.284 2.284 0 0 1-3.277 0 2.28 2.28 0 0 1 0-3.276L12 12z" fill="#00C896"/></g></g><text x="160" y="542" text-anchor="middle" class="lbl">LangChain</text></g><g class="cw21" style="transform-origin:250px 521px"><rect x="210" y="476" width="80" height="90" rx="12" fill="#161b22" stroke="#30363d" stroke-width="1"/><rect x="210" y="476" width="80" height="90" rx="12" fill="url(#shine)" opacity="0"/><g class="icon21" style="transform-origin:250px 514px"><rect x="234" y="498" width="32" height="32" rx="7" fill="#1C3C3C"/><text x="250" y="511.44" text-anchor="middle" font-size="8" font-family="sans-serif" font-weight="bold" fill="#00C896">LANG</text><text x="250" y="521.04" text-anchor="middle" font-size="8" font-family="sans-serif" font-weight="bold" fill="#ffffff">GRAPH</text></g><text x="250" y="542" text-anchor="middle" class="lbl">LangGraph</text></g><g class="cw22" style="transform-origin:340px 521px"><rect x="300" y="476" width="80" height="90" rx="12" fill="#161b22" stroke="#30363d" stroke-width="1"/><rect x="300" y="476" width="80" height="90" rx="12" fill="url(#shine)" opacity="0"/><g class="icon22" style="transform-origin:340px 514px"><g transform="translate(324,498) scale(1.3333333333333333)"><path d="M22.2819 9.8211a5.9847 5.9847 0 0 0-.5157-4.9108 6.0462 6.0462 0 0 0-6.5098-2.9A6.0651 6.0651 0 0 0 4.9807 4.1818a5.9847 5.9847 0 0 0-3.9977 2.9 6.0462 6.0462 0 0 0 .7427 7.0966 5.98 5.98 0 0 0 .511 4.9107 6.051 6.051 0 0 0 6.5146 2.9001A5.9847 5.9847 0 0 0 13.2599 24a6.0557 6.0557 0 0 0 5.7718-4.2058 5.9894 5.9894 0 0 0 3.9977-2.9001 6.0557 6.0557 0 0 0-.7475-7.0729zm-9.022 12.6081a4.4755 4.4755 0 0 1-2.8764-1.0408l.1419-.0804 4.7783-2.7582a.7948.7948 0 0 0 .3927-.6813v-6.7369l2.02 1.1686a.071.071 0 0 1 .038.052v5.5826a4.504 4.504 0 0 1-4.4945 4.4944zm-9.6607-4.1254a4.4708 4.4708 0 0 1-.5346-3.0137l.142.0852 4.783 2.7582a.7712.7712 0 0 0 .7806 0l5.8428-3.3685v2.3324a.0804.0804 0 0 1-.0332.0615L9.74 19.9502a4.4992 4.4992 0 0 1-6.1408-1.6464zM2.3408 7.8956a4.485 4.485 0 0 1 2.3655-1.9728V11.6a.7664.7664 0 0 0 .3879.6765l5.8144 3.3543-2.0201 1.1685a.0757.0757 0 0 1-.071 0l-4.8303-2.7865A4.504 4.504 0 0 1 2.3408 7.872zm16.5963 3.8558L13.1038 8.364 15.1192 7.2a.0757.0757 0 0 1 .071 0l4.8303 2.7913a4.4944 4.4944 0 0 1-.6765 8.1042v-5.6772a.79.79 0 0 0-.407-.667zm2.0107-3.0231l-.142-.0852-4.7735-2.7818a.7759.7759 0 0 0-.7854 0L9.409 9.2297V6.8974a.0662.0662 0 0 1 .0284-.0615l4.8303-2.7866a4.4992 4.4992 0 0 1 6.6802 4.66zM8.3065 12.863l-2.02-1.1638a.0804.0804 0 0 1-.038-.0567V6.0742a4.4992 4.4992 0 0 1 7.3757-3.4537l-.142.0805L8.704 5.459a.7948.7948 0 0 0-.3927.6813zm1.0976-2.3654l2.602-1.4998 2.6069 1.4998v2.9994l-2.5974 1.4997-2.6067-1.4997Z" fill="#ffffff"/></g></g><text x="340" y="542" text-anchor="middle" class="lbl">OpenAI</text></g><g class="cw23" style="transform-origin:430px 521px"><rect x="390" y="476" width="80" height="90" rx="12" fill="#161b22" stroke="#30363d" stroke-width="1"/><rect x="390" y="476" width="80" height="90" rx="12" fill="url(#shine)" opacity="0"/><g class="icon23" style="transform-origin:430px 514px"><rect x="414" y="498" width="32" height="32" rx="7" fill="#C96442"/><text x="430" y="517.84" text-anchor="middle" font-size="10" font-family="sans-serif" font-weight="bold" fill="#ffffff">Claude</text></g><text x="430" y="542" text-anchor="middle" class="lbl">Claude</text></g><g class="cw24" style="transform-origin:520px 521px"><rect x="480" y="476" width="80" height="90" rx="12" fill="#161b22" stroke="#30363d" stroke-width="1"/><rect x="480" y="476" width="80" height="90" rx="12" fill="url(#shine)" opacity="0"/><g class="icon24" style="transform-origin:520px 514px"><rect x="504" y="498" width="32" height="32" rx="7" fill="#7C3AED"/><text x="520" y="511.44" text-anchor="middle" font-size="8" font-family="sans-serif" font-weight="bold" fill="#ffffff">AI</text><text x="520" y="521.04" text-anchor="middle" font-size="8" font-family="sans-serif" font-weight="bold" fill="#ffffff">AGENTS</text></g><text x="520" y="542" text-anchor="middle" class="lbl">AI Agents</text></g><g class="cw25" style="transform-origin:610px 521px"><rect x="570" y="476" width="80" height="90" rx="12" fill="#161b22" stroke="#30363d" stroke-width="1"/><rect x="570" y="476" width="80" height="90" rx="12" fill="url(#shine)" opacity="0"/><g class="icon25" style="transform-origin:610px 514px"><rect x="594" y="498" width="32" height="32" rx="7" fill="#6366F1"/><text x="610" y="517.84" text-anchor="middle" font-size="13" font-family="sans-serif" font-weight="bold" fill="#ffffff">RAG</text></g><text x="610" y="542" text-anchor="middle" class="lbl">RAG</text></g><g class="cw26" style="transform-origin:700px 521px"><rect x="660" y="476" width="80" height="90" rx="12" fill="#161b22" stroke="#30363d" stroke-width="1"/><rect x="660" y="476" width="80" height="90" rx="12" fill="url(#shine)" opacity="0"/><g class="icon26" style="transform-origin:700px 514px"><rect x="684" y="498" width="32" height="32" rx="7" fill="#0A66C2"/><text x="700" y="511.44" text-anchor="middle" font-size="8" font-family="sans-serif" font-weight="bold" fill="#ffffff">MCP</text><text x="700" y="521.04" text-anchor="middle" font-size="8" font-family="sans-serif" font-weight="bold" fill="#ffffff">SERVER</text></g><text x="700" y="542" text-anchor="middle" class="lbl">MCP</text></g><text x="430" y="612" text-anchor="middle" class="sec-title">🗄️  DATABASES & CLOUD</text><line x1="14" y1="740" x2="846" y2="740" stroke="#21262d" stroke-width="1"/><g class="cw27" style="transform-origin:205px 679px"><rect x="165" y="634" width="80" height="90" rx="12" fill="#161b22" stroke="#30363d" stroke-width="1"/><rect x="165" y="634" width="80" height="90" rx="12" fill="url(#shine)" opacity="0"/><g class="icon27" style="transform-origin:205px 672px"><g transform="translate(189,656) scale(1.3333333333333333)"><path d="M16.405 5.501c-.115 0-.193.014-.274.033v.013h.014c.054.104.146.18.214.273.054.107.1.214.154.32l.014-.015c.094-.066.14-.172.14-.333-.04-.047-.046-.094-.08-.14-.04-.067-.126-.1-.18-.153zM5.77 18.695h-.927a50.854 50.854 0 00-.27-4.41h-.008l-1.41 4.41H2.45l-1.4-4.41h-.01a72.892 72.892 0 00-.195 4.41H0c.055-1.966.192-3.81.41-5.53h1.15l1.335 4.064h.008l1.347-4.064h1.095c.242 2.015.384 3.86.428 5.53zm4.017-4.08c-.378 2.045-.876 3.533-1.492 4.46-.482.716-1.01 1.073-1.583 1.073-.153 0-.34-.046-.566-.138v-.494c.11.017.24.026.386.026.268 0 .483-.075.647-.222.197-.18.295-.382.295-.605 0-.155-.077-.47-.23-.944L6.23 14.615h.91l.727 2.36c.164.536.233.91.205 1.123.4-1.064.678-2.227.835-3.483zm12.325 4.08h-2.63v-5.53h.885v4.85h1.745zm-3.32.135l-1.016-.5c.09-.076.177-.158.255-.25.433-.506.648-1.258.648-2.253 0-1.83-.718-2.746-2.155-2.746-.704 0-1.254.232-1.65.697-.43.508-.646 1.256-.646 2.245 0 .972.19 1.686.574 2.14.35.41.877.615 1.583.615.264 0 .506-.033.725-.098l1.325.772.36-.622zM15.5 17.588c-.225-.36-.337-.94-.337-1.736 0-1.393.424-2.09 1.27-2.09.443 0 .77.167.977.5.224.362.336.936.336 1.723 0 1.404-.424 2.108-1.27 2.108-.445 0-.77-.167-.978-.5zm-1.658-.425c0 .47-.172.856-.516 1.156-.344.3-.803.45-1.384.45-.543 0-1.064-.172-1.573-.515l.237-.476c.438.22.833.328 1.19.328.332 0 .593-.073.783-.22a.754.754 0 00.3-.615c0-.33-.23-.61-.648-.845-.388-.213-1.163-.657-1.163-.657-.422-.307-.632-.636-.632-1.177 0-.45.157-.81.47-1.085.315-.278.72-.415 1.22-.415.512 0 .98.136 1.4.41l-.213.476a2.726 2.726 0 00-1.064-.23c-.283 0-.502.068-.654.206a.685.685 0 00-.248.524c0 .328.234.61.666.85.393.215 1.187.67 1.187.67.433.305.648.63.648 1.168zm9.382-5.852c-.535-.014-.95.04-1.297.188-.1.04-.26.04-.274.167.055.053.063.14.11.214.08.134.218.313.346.407.14.11.28.216.427.31.26.16.555.255.81.416.145.094.293.213.44.313.073.05.12.14.214.172v-.02c-.046-.06-.06-.147-.105-.214-.067-.067-.134-.127-.2-.193a3.223 3.223 0 00-.695-.675c-.214-.146-.682-.35-.77-.595l-.013-.014c.146-.013.32-.066.46-.106.227-.06.435-.047.67-.106.106-.027.213-.06.32-.094v-.06c-.12-.12-.21-.283-.334-.395a8.867 8.867 0 00-1.104-.823c-.21-.134-.476-.22-.697-.334-.08-.04-.214-.06-.26-.127-.12-.146-.19-.34-.275-.514a17.69 17.69 0 01-.547-1.163c-.12-.262-.193-.523-.34-.763-.69-1.137-1.437-1.826-2.586-2.5-.247-.14-.543-.2-.856-.274-.167-.008-.334-.02-.5-.027-.11-.047-.216-.174-.31-.235-.38-.24-1.364-.76-1.644-.072-.18.434.267.862.422 1.082.115.153.26.328.34.5.047.116.06.235.107.356.106.294.207.622.347.897.073.14.153.287.247.413.054.073.146.107.167.227-.094.136-.1.334-.154.5-.24.757-.146 1.693.194 2.25.107.166.362.534.703.393.3-.12.234-.5.32-.835.02-.08.007-.133.048-.187v.015c.094.188.188.367.274.555.206.328.566.668.867.895.16.12.287.328.487.402v-.02h-.015c-.043-.058-.1-.086-.154-.133a3.445 3.445 0 01-.35-.4 8.76 8.76 0 01-.747-1.218c-.11-.21-.202-.436-.29-.643-.04-.08-.04-.2-.107-.24-.1.146-.247.273-.32.453-.127.288-.14.642-.188 1.01-.027.007-.014 0-.027.014-.214-.052-.287-.274-.367-.46-.2-.475-.233-1.238-.06-1.785.047-.14.247-.582.167-.716-.042-.127-.174-.2-.247-.303a2.478 2.478 0 01-.24-.427c-.16-.374-.24-.788-.414-1.162-.08-.173-.22-.354-.334-.513-.127-.18-.267-.307-.368-.52-.033-.073-.08-.194-.027-.274.014-.054.042-.075.094-.09.088-.072.335.022.422.062.247.1.455.194.662.334.094.066.195.193.315.226h.14c.214.047.455.014.655.073.355.114.675.28.962.46a5.953 5.953 0 012.085 2.286c.08.154.115.295.188.455.14.33.313.663.455.982.14.315.275.636.476.897.1.14.502.213.682.286.133.06.34.115.46.188.23.14.454.3.67.454.11.076.443.243.463.378z" fill="#4479A1"/></g></g><text x="205" y="700" text-anchor="middle" class="lbl">MySQL</text></g><g class="cw28" style="transform-origin:295px 679px"><rect x="255" y="634" width="80" height="90" rx="12" fill="#161b22" stroke="#30363d" stroke-width="1"/><rect x="255" y="634" width="80" height="90" rx="12" fill="url(#shine)" opacity="0"/><g class="icon28" style="transform-origin:295px 672px"><g transform="translate(279,656) scale(1.3333333333333333)"><path d="M23.5594 14.7228a.5269.5269 0 0 0-.0563-.1191c-.139-.2632-.4768-.3418-1.0074-.2321-1.6533.3411-2.2935.1312-2.5256-.0191 1.342-2.0482 2.445-4.522 3.0411-6.8297.2714-1.0507.7982-3.5237.1222-4.7316a1.5641 1.5641 0 0 0-.1509-.235C21.6931.9086 19.8007.0248 17.5099.0005c-1.4947-.0158-2.7705.3461-3.1161.4794a9.449 9.449 0 0 0-.5159-.0816 8.044 8.044 0 0 0-1.3114-.1278c-1.1822-.0184-2.2038.2642-3.0498.8406-.8573-.3211-4.7888-1.645-7.2219.0788C.9359 2.1526.3086 3.8733.4302 6.3043c.0409.818.5069 3.334 1.2423 5.7436.4598 1.5065.9387 2.7019 1.4334 3.582.553.9942 1.1259 1.5933 1.7143 1.7895.4474.1491 1.1327.1441 1.8581-.7279.8012-.9635 1.5903-1.8258 1.9446-2.2069.4351.2355.9064.3625 1.39.3772a.0569.0569 0 0 0 .0004.0041 11.0312 11.0312 0 0 0-.2472.3054c-.3389.4302-.4094.5197-1.5002.7443-.3102.064-1.1344.2339-1.1464.8115-.0025.1224.0329.2309.0919.3268.2269.4231.9216.6097 1.015.6331 1.3345.3335 2.5044.092 3.3714-.6787-.017 2.231.0775 4.4174.3454 5.0874.2212.5529.7618 1.9045 2.4692 1.9043.2505 0 .5263-.0291.8296-.0941 1.7819-.3821 2.5557-1.1696 2.855-2.9059.1503-.8707.4016-2.8753.5388-4.1012.0169-.0703.0357-.1207.057-.1362.0007-.0005.0697-.0471.4272.0307a.3673.3673 0 0 0 .0443.0068l.2539.0223.0149.001c.8468.0384 1.9114-.1426 2.5312-.4308.6438-.2988 1.8057-1.0323 1.5951-1.6698zM2.371 11.8765c-.7435-2.4358-1.1779-4.8851-1.2123-5.5719-.1086-2.1714.4171-3.6829 1.5623-4.4927 1.8367-1.2986 4.8398-.5408 6.108-.13-.0032.0032-.0066.0061-.0098.0094-2.0238 2.044-1.9758 5.536-1.9708 5.7495-.0002.0823.0066.1989.0162.3593.0348.5873.0996 1.6804-.0735 2.9184-.1609 1.1504.1937 2.2764.9728 3.0892.0806.0841.1648.1631.2518.2374-.3468.3714-1.1004 1.1926-1.9025 2.1576-.5677.6825-.9597.5517-1.0886.5087-.3919-.1307-.813-.5871-1.2381-1.3223-.4796-.839-.9635-2.0317-1.4155-3.5126zm6.0072 5.0871c-.1711-.0428-.3271-.1132-.4322-.1772.0889-.0394.2374-.0902.4833-.1409 1.2833-.2641 1.4815-.4506 1.9143-1.0002.0992-.126.2116-.2687.3673-.4426a.3549.3549 0 0 0 .0737-.1298c.1708-.1513.2724-.1099.4369-.0417.156.0646.3078.26.3695.4752.0291.1016.0619.2945-.0452.4444-.9043 1.2658-2.2216 1.2494-3.1676 1.0128zm2.094-3.988-.0525.141c-.133.3566-.2567.6881-.3334 1.003-.6674-.0021-1.3168-.2872-1.8105-.8024-.6279-.6551-.9131-1.5664-.7825-2.5004.1828-1.3079.1153-2.4468.079-3.0586-.005-.0857-.0095-.1607-.0122-.2199.2957-.2621 1.6659-.9962 2.6429-.7724.4459.1022.7176.4057.8305.928.5846 2.7038.0774 3.8307-.3302 4.7363-.084.1866-.1633.3629-.2311.5454zm7.3637 4.5725c-.0169.1768-.0358.376-.0618.5959l-.146.4383a.3547.3547 0 0 0-.0182.1077c-.0059.4747-.054.6489-.115.8693-.0634.2292-.1353.4891-.1794 1.0575-.11 1.4143-.8782 2.2267-2.4172 2.5565-1.5155.3251-1.7843-.4968-2.0212-1.2217a6.5824 6.5824 0 0 0-.0769-.2266c-.2154-.5858-.1911-1.4119-.1574-2.5551.0165-.5612-.0249-1.9013-.3302-2.6462.0044-.2932.0106-.5909.019-.8918a.3529.3529 0 0 0-.0153-.1126 1.4927 1.4927 0 0 0-.0439-.208c-.1226-.4283-.4213-.7866-.7797-.9351-.1424-.059-.4038-.1672-.7178-.0869.067-.276.1831-.5875.309-.9249l.0529-.142c.0595-.16.134-.3257.213-.5012.4265-.9476 1.0106-2.2453.3766-5.1772-.2374-1.0981-1.0304-1.6343-2.2324-1.5098-.7207.0746-1.3799.3654-1.7088.5321a5.6716 5.6716 0 0 0-.1958.1041c.0918-1.1064.4386-3.1741 1.7357-4.4823a4.0306 4.0306 0 0 1 .3033-.276.3532.3532 0 0 0 .1447-.0644c.7524-.5706 1.6945-.8506 2.802-.8325.4091.0067.8017.0339 1.1742.081 1.939.3544 3.2439 1.4468 4.0359 2.3827.8143.9623 1.2552 1.9315 1.4312 2.4543-1.3232-.1346-2.2234.1268-2.6797.779-.9926 1.4189.543 4.1729 1.2811 5.4964.1353.2426.2522.4522.2889.5413.2403.5825.5515.9713.7787 1.2552.0696.087.1372.1714.1885.245-.4008.1155-1.1208.3825-1.0552 1.717-.0123.1563-.0423.4469-.0834.8148-.0461.2077-.0702.4603-.0994.7662zm.8905-1.6211c-.0405-.8316.2691-.9185.5967-1.0105a2.8566 2.8566 0 0 0 .135-.0406 1.202 1.202 0 0 0 .1342.103c.5703.3765 1.5823.4213 3.0068.1344-.2016.1769-.5189.3994-.9533.6011-.4098.1903-1.0957.333-1.7473.3636-.7197.0336-1.0859-.0807-1.1721-.151zm.5695-9.2712c-.0059.3508-.0542.6692-.1054 1.0017-.055.3576-.112.7274-.1264 1.1762-.0142.4368.0404.8909.0932 1.3301.1066.887.216 1.8003-.2075 2.7014a3.5272 3.5272 0 0 1-.1876-.3856c-.0527-.1276-.1669-.3326-.3251-.6162-.6156-1.1041-2.0574-3.6896-1.3193-4.7446.3795-.5427 1.3408-.5661 2.1781-.463zm.2284 7.0137a12.3762 12.3762 0 0 0-.0853-.1074l-.0355-.0444c.7262-1.1995.5842-2.3862.4578-3.4385-.0519-.4318-.1009-.8396-.0885-1.2226.0129-.4061.0666-.7543.1185-1.0911.0639-.415.1288-.8443.1109-1.3505.0134-.0531.0188-.1158.0118-.1902-.0457-.4855-.5999-1.938-1.7294-3.253-.6076-.7073-1.4896-1.4972-2.6889-2.0395.5251-.1066 1.2328-.2035 2.0244-.1859 2.0515.0456 3.6746.8135 4.8242 2.2824a.908.908 0 0 1 .0667.1002c.7231 1.3556-.2762 6.2751-2.9867 10.5405zm-8.8166-6.1162c-.025.1794-.3089.4225-.6211.4225a.5821.5821 0 0 1-.0809-.0056c-.1873-.026-.3765-.144-.5059-.3156-.0458-.0605-.1203-.178-.1055-.2844.0055-.0401.0261-.0985.0925-.1488.1182-.0894.3518-.1226.6096-.0867.3163.0441.6426.1938.6113.4186zm7.9305-.4114c.0111.0792-.049.201-.1531.3102-.0683.0717-.212.1961-.4079.2232a.5456.5456 0 0 1-.075.0052c-.2935 0-.5414-.2344-.5607-.3717-.024-.1765.2641-.3106.5611-.352.297-.0414.6111.0088.6356.1851z" fill="#4169E1"/></g></g><text x="295" y="700" text-anchor="middle" class="lbl">Postgres</text></g><g class="cw29" style="transform-origin:385px 679px"><rect x="345" y="634" width="80" height="90" rx="12" fill="#161b22" stroke="#30363d" stroke-width="1"/><rect x="345" y="634" width="80" height="90" rx="12" fill="url(#shine)" opacity="0"/><g class="icon29" style="transform-origin:385px 672px"><g transform="translate(369,656) scale(1.3333333333333333)"><path d="M11.9 1.036c-.015-.986-1.26-1.41-1.874-.637L.764 12.05C-.33 13.427.65 15.455 2.409 15.455h9.579l.113 7.51c.014.985 1.259 1.408 1.873.636l9.262-11.653c1.093-1.375.113-3.403-1.645-3.403h-9.642z" fill="#3FCF8E"/></g></g><text x="385" y="700" text-anchor="middle" class="lbl">Supabase</text></g><g class="cw30" style="transform-origin:475px 679px"><rect x="435" y="634" width="80" height="90" rx="12" fill="#161b22" stroke="#30363d" stroke-width="1"/><rect x="435" y="634" width="80" height="90" rx="12" fill="url(#shine)" opacity="0"/><g class="icon30" style="transform-origin:475px 672px"><g transform="translate(459,656) scale(1.3333333333333333)"><path d="M6.763 10.036c0 .296.032.535.088.71.064.176.144.368.256.576.04.064.056.128.056.184 0 .08-.048.16-.152.24l-.504.336a.383.383 0 0 1-.208.072c-.08 0-.16-.04-.24-.112a2.47 2.47 0 0 1-.288-.376 6.18 6.18 0 0 1-.248-.472c-.624.736-1.408 1.104-2.352 1.104-.672 0-1.208-.192-1.6-.576-.392-.384-.592-.896-.592-1.536 0-.68.24-1.232.728-1.648.488-.416 1.136-.624 1.96-.624.272 0 .552.024.848.064.296.04.6.104.920.176v-.584c0-.608-.128-1.032-.376-1.28-.256-.248-.688-.368-1.304-.368-.28 0-.568.032-.864.104a6.415 6.415 0 0 0-.864.272 2.294 2.294 0 0 1-.28.104.488.488 0 0 1-.124.016c-.112 0-.168-.08-.168-.248v-.392c0-.128.016-.224.056-.28a.597.597 0 0 1 .224-.168c.28-.144.616-.264 1.008-.36a4.97 4.97 0 0 1 1.272-.152c.968 0 1.676.22 2.132.66.448.44.676 1.108.676 2.004v2.636zm-3.24 1.212c.264 0 .536-.048.824-.144.288-.096.544-.272.76-.512.128-.152.224-.32.272-.512.048-.192.08-.424.08-.696v-.336a6.69 6.69 0 0 0-.736-.136 6.02 6.02 0 0 0-.752-.048c-.536 0-.928.104-1.192.32-.264.216-.392.52-.392.912 0 .368.096.648.296.832.192.192.464.32.84.32zm6.44.888c-.144 0-.24-.024-.304-.08-.064-.048-.12-.16-.168-.312L7.586 5.55a1.398 1.398 0 0 1-.072-.32c0-.128.064-.2.192-.2h.784c.152 0 .256.024.312.08.064.048.112.16.16.312l1.324 5.213 1.228-5.213c.04-.16.088-.264.152-.312a.533.533 0 0 1 .32-.08h.64c.152 0 .256.024.32.08.064.048.12.16.152.312l1.244 5.28 1.364-5.28c.048-.16.104-.264.16-.312a.533.533 0 0 1 .312-.08h.744c.128 0 .2.064.2.2 0 .04-.008.08-.016.128a1.137 1.137 0 0 1-.056.2l-1.92 6.294c-.048.16-.104.264-.168.312a.48.48 0 0 1-.304.08h-.688c-.152 0-.256-.024-.32-.08-.064-.056-.12-.16-.152-.32L12.9 7.576l-1.212 4.82c-.04.16-.088.264-.152.32-.064.056-.176.08-.32.08zm10.256.248c-.416 0-.832-.048-1.232-.144-.4-.096-.712-.2-.92-.32-.128-.072-.216-.152-.248-.224a.56.56 0 0 1-.048-.232v-.408c0-.168.064-.248.184-.248.048 0 .096.008.144.024.048.016.12.048.2.08.272.12.568.216.888.28.328.064.648.096.976.096.52 0 .92-.088 1.2-.268.28-.176.424-.44.424-.784 0-.232-.072-.424-.216-.584-.144-.16-.416-.304-.808-.44l-1.16-.36c-.584-.184-1.016-.456-1.288-.816a1.953 1.953 0 0 1-.408-1.2c0-.344.072-.648.216-.912.144-.264.336-.496.576-.688.24-.2.512-.344.824-.448.312-.104.64-.152.984-.152.168 0 .344.008.512.032.176.024.336.056.496.096.152.04.296.088.432.136.136.048.24.096.312.144a.649.649 0 0 1 .216.176.39.39 0 0 1 .056.224v.376c0 .168-.064.256-.184.256a.83.83 0 0 1-.304-.096 3.652 3.652 0 0 0-1.544-.32c-.472 0-.84.08-1.096.24-.256.16-.384.408-.384.752 0 .232.08.432.24.592.16.16.456.32.888.464l1.136.36c.576.184.992.44 1.248.768.256.328.384.704.384 1.12 0 .352-.072.672-.208.952-.144.28-.336.528-.584.728-.248.208-.544.36-.888.464-.36.12-.744.176-1.16.176zM21.4 16.948c-2.608 1.928-6.392 2.952-9.648 2.952-4.56 0-8.672-1.688-11.776-4.496-.248-.224-.024-.528.272-.352 3.352 1.952 7.496 3.128 11.776 3.128 2.888 0 6.056-.6 8.976-1.84.44-.192.808.288.4.608z" fill="#FF9900"/></g></g><text x="475" y="700" text-anchor="middle" class="lbl">AWS</text></g><g class="cw31" style="transform-origin:565px 679px"><rect x="525" y="634" width="80" height="90" rx="12" fill="#161b22" stroke="#30363d" stroke-width="1"/><rect x="525" y="634" width="80" height="90" rx="12" fill="url(#shine)" opacity="0"/><g class="icon31" style="transform-origin:565px 672px"><g transform="translate(549,656) scale(1.3333333333333333)"><path d="M12.19 2.38a9.344 9.344 0 0 0-9.234 6.893c.053-.02-.055.013 0 0-3.875 2.551-3.922 8.11-.247 10.941l.006-.007-.007.03a6.717 6.717 0 0 0 4.077 1.356h5.173l.03.03h5.192c6.687.053 9.376-8.605 3.835-12.35a9.365 9.365 0 0 0-2.821-4.552l-.043.043.006-.05A9.344 9.344 0 0 0 12.19 2.38zm-.358 4.146c1.244-.04 2.518.368 3.486 1.15a5.186 5.186 0 0 1 1.862 4.078v.518c3.53-.07 3.53 5.262 0 5.193h-5.193l-.008.009v-.04H6.785a2.59 2.59 0 0 1-1.067-.23h.001a2.597 2.597 0 1 1 3.437-3.437l3.013-3.012A6.747 6.747 0 0 0 8.11 8.24c.018-.01.04-.026.054-.023a5.186 5.186 0 0 1 3.67-1.69z" fill="#4285F4"/></g></g><text x="565" y="700" text-anchor="middle" class="lbl">GCP</text></g><g class="cw32" style="transform-origin:655px 679px"><rect x="615" y="634" width="80" height="90" rx="12" fill="#161b22" stroke="#30363d" stroke-width="1"/><rect x="615" y="634" width="80" height="90" rx="12" fill="url(#shine)" opacity="0"/><g class="icon32" style="transform-origin:655px 672px"><g transform="translate(639,656) scale(1.3333333333333333)"><path d="M13.983 11.078h2.119a.186.186 0 00.186-.185V9.006a.186.186 0 00-.186-.186h-2.119a.185.185 0 00-.185.185v1.888c0 .102.083.185.185.185m-2.954-5.43h2.118a.186.186 0 00.186-.186V3.574a.186.186 0 00-.186-.185h-2.118a.185.185 0 00-.185.185v1.888c0 .102.082.185.185.185m0 2.716h2.118a.187.187 0 00.186-.186V6.29a.186.186 0 00-.186-.185h-2.118a.185.185 0 00-.185.185v1.887c0 .102.082.185.185.186m-2.93 0h2.12a.186.186 0 00.184-.186V6.29a.185.185 0 00-.185-.185H8.1a.185.185 0 00-.185.185v1.887c0 .102.083.185.185.186m-2.964 0h2.119a.186.186 0 00.185-.186V6.29a.185.185 0 00-.185-.185H5.136a.186.186 0 00-.186.185v1.887c0 .102.084.185.186.186m5.893 2.715h2.118a.186.186 0 00.186-.185V9.006a.186.186 0 00-.186-.186h-2.118a.185.185 0 00-.185.185v1.888c0 .102.082.185.185.185m-2.93 0h2.12a.185.185 0 00.184-.185V9.006a.185.185 0 00-.184-.186h-2.12a.185.185 0 00-.184.185v1.888c0 .102.083.185.185.185m-2.964 0h2.119a.185.185 0 00.185-.185V9.006a.185.185 0 00-.184-.186h-2.12a.186.186 0 00-.186.186v1.887c0 .102.084.185.186.185m-2.92 0h2.12a.185.185 0 00.184-.185V9.006a.185.185 0 00-.184-.186h-2.12a.185.185 0 00-.184.185v1.888c0 .102.082.185.185.185M23.763 9.89c-.065-.051-.672-.51-1.954-.51-.338.001-.676.03-1.01.087-.248-1.7-1.653-2.53-1.716-2.566l-.344-.199-.226.327c-.284.438-.49.922-.612 1.43-.23.97-.09 1.882.403 2.661-.595.332-1.55.413-1.744.42H.751a.751.751 0 00-.75.748 11.376 11.376 0 00.692 4.062c.545 1.428 1.355 2.48 2.41 3.124 1.18.723 3.1 1.137 5.275 1.137.983.003 1.963-.086 2.93-.266a12.248 12.248 0 003.823-1.389c.98-.567 1.86-1.288 2.61-2.136 1.252-1.418 1.998-2.997 2.553-4.4h.221c1.372 0 2.215-.549 2.68-1.009.309-.293.55-.65.707-1.046l.098-.288Z" fill="#2496ED"/></g></g><text x="655" y="700" text-anchor="middle" class="lbl">Docker</text></g><text x="430" y="770" text-anchor="middle" class="sec-title">📊  DATA & ANALYTICS</text><line x1="14" y1="898" x2="846" y2="898" stroke="#21262d" stroke-width="1"/><g class="cw33" style="transform-origin:250px 837px"><rect x="210" y="792" width="80" height="90" rx="12" fill="#161b22" stroke="#30363d" stroke-width="1"/><rect x="210" y="792" width="80" height="90" rx="12" fill="url(#shine)" opacity="0"/><g class="icon33" style="transform-origin:250px 830px"><g transform="translate(234,814) scale(1.3333333333333333)"><path d="M23 1.5q.41 0 .7.3.3.29.3.7v19q0 .41-.3.7-.29.3-.7.3H7q-.41 0-.7-.3-.3-.29-.3-.7V18H1q-.41 0-.7-.3-.3-.29-.3-.7V7q0-.41.3-.7Q.58 6 1 6h5V2.5q0-.41.3-.7.29-.3.7-.3zM6 13.28l1.42 2.66h2.14l-2.38-3.87 2.34-3.8H7.46L6.17 10.9l-.05.08-.04.09-.64-1.24q-.18-.33-.49-.3H3.38l2.33 3.8-2.49 3.87h2.14zm14.5 5.22V16h-7v2.5zm0-4V12h-7v2.5zm0-4V8h-7v2.5zm0-4V2.5H7V6h6q.41 0 .7.3.3.29.3.7v2h6.5z" fill="#217346"/></g></g><text x="250" y="858" text-anchor="middle" class="lbl">Excel</text></g><g class="cw34" style="transform-origin:340px 837px"><rect x="300" y="792" width="80" height="90" rx="12" fill="#161b22" stroke="#30363d" stroke-width="1"/><rect x="300" y="792" width="80" height="90" rx="12" fill="url(#shine)" opacity="0"/><g class="icon34" style="transform-origin:340px 830px"><rect x="324" y="814" width="32" height="32" rx="7" fill="#F2C811"/><text x="340" y="827.44" text-anchor="middle" font-size="8" font-family="sans-serif" font-weight="bold" fill="#ffffff">Power</text><text x="340" y="837.04" text-anchor="middle" font-size="8" font-family="sans-serif" font-weight="bold" fill="#000">BI</text></g><text x="340" y="858" text-anchor="middle" class="lbl">Power BI</text></g><g class="cw35" style="transform-origin:430px 837px"><rect x="390" y="792" width="80" height="90" rx="12" fill="#161b22" stroke="#30363d" stroke-width="1"/><rect x="390" y="792" width="80" height="90" rx="12" fill="url(#shine)" opacity="0"/><g class="icon35" style="transform-origin:430px 830px"><g transform="translate(414,814) scale(1.3333333333333333)"><path d="M7.157 22.201A1.784 1.799 0 0 1 5.374 24a1.784 1.799 0 0 1-1.784-1.799 1.784 1.799 0 0 1 1.784-1.799 1.784 1.799 0 0 1 1.783 1.799zM20.582 1.427a1.415 1.427 0 0 1-1.415 1.428 1.415 1.427 0 0 1-1.416-1.428A1.415 1.427 0 0 1 19.167 0a1.415 1.427 0 0 1 1.415 1.427zM4.992 3.336A1.047 1.056 0 0 1 3.946 4.39a1.047 1.056 0 0 1-1.047-1.055A1.047 1.056 0 0 1 3.946 2.28a1.047 1.056 0 0 1 1.046 1.056zm7.336 1.517c3.769 0 7.06 1.38 8.768 3.424a9.363 9.363 0 0 0-3.393-4.547 9.238 9.238 0 0 0-5.377-1.728A9.238 9.238 0 0 0 6.95 3.73a9.363 9.363 0 0 0-3.394 4.547c1.713-2.04 5.004-3.424 8.772-3.424zm.001 13.295c-3.768 0-7.06-1.381-8.768-3.425a9.363 9.363 0 0 0 3.394 4.547A9.238 9.238 0 0 0 12.33 21a9.238 9.238 0 0 0 5.377-1.729 9.363 9.363 0 0 0 3.393-4.547c-1.712 2.044-5.003 3.425-8.772 3.425Z" fill="#F37626"/></g></g><text x="430" y="858" text-anchor="middle" class="lbl">Jupyter</text></g><g class="cw36" style="transform-origin:520px 837px"><rect x="480" y="792" width="80" height="90" rx="12" fill="#161b22" stroke="#30363d" stroke-width="1"/><rect x="480" y="792" width="80" height="90" rx="12" fill="url(#shine)" opacity="0"/><g class="icon36" style="transform-origin:520px 830px"><g transform="translate(504,814) scale(1.3333333333333333)"><path d="M.1025 7.3475c-.0681 0-.1022.0341-.1022.102v6.752c0 .0681.034.1022.1022.1022h.7049c.068 0 .1022-.034.1022-.1023v-1.481l.4187-.3985 1.5016 1.91c.041.0477.0884.0716.143.0716h.9091c.0476 0 .0748-.0135.0817-.0407.0135-.041.0066-.075-.0206-.1023l-1.9816-2.4618 1.9002-1.8384c.0204-.0205.0237-.051.01-.092-.0137-.0339-.0408-.051-.0816-.051h-.9398c-.0477 0-.0953.024-.143.0716L.9096 11.607V7.4496c0-.0679-.0342-.102-.1022-.102zm18.0417 0c-.068 0-.102.0341-.102.102v6.752c0 .0681.034.102.102.102h.705c.068 0 .102-.034.102-.102v-6.752c0-.068-.034-.102-.102-.102zM5.961 9.6254c-.5653 0-1.11.1806-1.6343.5415-.0545.0545-.0648.102-.0307.143l.3676.5208c.0272.0477.0717.0545.133.0204.3948-.2722.783-.4086 1.1644-.4086.2927 0 .5158.0886.669.2656.1532.1771.2197.3917.1992.6436-.6606.0681-1.1545.1495-1.4813.245-.8308.2383-1.2461.6913-1.2461 1.3586 0 .4222.1533.7695.4598 1.0419.3132.2654.6845.3982 1.1134.3982.4698 0 .8545-.1125 1.1542-.3372v.1432c0 .0682.0374.102.1123.102h.7048c.068 0 .102-.0338.102-.102V11.372c0-.6604-.2245-1.1406-.6739-1.4403-.3065-.2043-.6776-.3063-1.1134-.3063zm4.3225 0c-.6742 0-1.195.2622-1.5627.7865-.3133.4359-.4699.9671-.4699 1.5936 0 .6604.1634 1.2087.4903 1.6444.3744.4972.892.7455 1.5526.7455.5313 0 .9567-.1327 1.2768-.3982v.531c0 .858-.4122 1.287-1.236 1.287-.361 0-.732-.1907-1.1132-.572a.098.098 0 00-.0716-.0306c-.034 0-.0613.0102-.0817.0307l-.4802.48c-.0408.0613-.0375.1124.0103.1532.1361.1157.2554.2129.3576.2911.102.0783.1905.1413.2656.189.354.1975.7284.2961 1.1235.2961.6808 0 1.207-.1925 1.5781-.577.3711-.3848.5567-.9484.5567-1.6903V9.8196c0-.068-.034-.102-.102-.102h-.705c-.0682 0-.1021.034-.1021.102v.2043c-.3471-.2657-.7763-.3985-1.287-.3985zm4.8021 0c-.6742 0-1.195.2622-1.5627.7865-.3132.4359-.4699.9671-.4699 1.5936 0 .6604.1633 1.2087.4903 1.6444.3744.4972.892.7455 1.5526.7455.5311 0 .9566-.1327 1.2768-.3982v.531c0 .858-.4122 1.287-1.236 1.287-.361 0-.732-.1907-1.1133-.572a.098.098 0 00-.0716-.0306c-.034 0-.0612.0102-.0816.0307l-.48.48c-.0409.0613-.0376.1124.01.1532.1363.1157.2555.2129.3576.2911.1021.0783.1906.1413.2657.189.354.1975.7285.2961 1.1237.2961.6808 0 1.2068-.1925 1.5781-.577.371-.3848.5565-.9484.5565-1.6903V9.8196c0-.068-.034-.102-.102-.102h-.7049c-.0682 0-.1022.034-.1022.102v.2043c-.3474-.2657-.7763-.3985-1.287-.3985zm6.7457 0c-.6537 0-1.185.211-1.5936.6332-.4427.4632-.664 1.0283-.664 1.6956 0 .7083.225 1.2905.6743 1.7467.463.463 1.042.6945 1.7366.6945.6467 0 1.2154-.1838 1.7057-.5515.0545-.041.0545-.0884 0-.143l-.4802-.4903c-.041-.0409-.0919-.0409-.1533 0-.2998.2112-.6368.3167-1.0112.3167-.4222 0-.7729-.119-1.052-.3576-.2452-.2248-.3882-.5038-.429-.8375h3.3197c.0679 0 .1022-.0341.1022-.1023l.01-.2244c.0341-.6878-.1668-1.26-.6025-1.7162-.4224-.4426-.9432-.664-1.5627-.664zm-.0206.7865c.3268 0 .6062.1056.8377.3166.2452.211.371.4734.378.7865h-2.4618c.0613-.3269.2077-.5925.4392-.7968.2313-.2042.5004-.3063.8069-.3063zm-11.4249.102c.6196 0 1.0146.2181 1.1848.6538v1.6854c-.1702.4358-.5755.6538-1.2155.6538-.3133 0-.5687-.0986-.7661-.2963-.2656-.2518-.3983-.6538-.3983-1.2053 0-.9941.3984-1.4914 1.1951-1.4914zm4.802 0c.6196 0 1.0148.2181 1.1851.6538h-.0002v1.6854c-.1703.4358-.5755.6538-1.2155.6538-.3132 0-.5686-.0986-.7661-.2963-.2655-.2518-.3983-.6538-.3983-1.2053 0-.9941.3983-1.4914 1.195-1.4914zm-8.3586 1.6547v1.0215c-.286.286-.6675.412-1.1441.3779-.1703-.0135-.32-.0663-.4493-.1582-.1294-.0919-.2045-.2129-.2249-.3627-.0341-.2657.1158-.47.4495-.6129.2452-.1088.7013-.1974 1.3688-.2656z" fill="#20BEFF"/></g></g><text x="520" y="858" text-anchor="middle" class="lbl">Kaggle</text></g><g class="cw37" style="transform-origin:610px 837px"><rect x="570" y="792" width="80" height="90" rx="12" fill="#161b22" stroke="#30363d" stroke-width="1"/><rect x="570" y="792" width="80" height="90" rx="12" fill="url(#shine)" opacity="0"/><g class="icon37" style="transform-origin:610px 830px"><rect x="594" y="814" width="32" height="32" rx="7" fill="#FFD21E"/><text x="610" y="837.04" text-anchor="middle" font-size="18">🤗</text></g><text x="610" y="858" text-anchor="middle" class="lbl">HuggingFace</text></g>
</svg>